<svg xmlns="http://www.w3.org/2000/svg" xmlns:xlink="http://www.w3.org/1999/xlink" width="40" zoomAndPan="magnify" viewBox="0 0 30 30.000001" height="40" preserveAspectRatio="xMidYMid meet" version="1.0"><defs><clipPath id="d885361c79"><path d="M 0.484375 0 L 29.515625 0 L 29.515625 29.03125 L 0.484375 29.03125 Z M 0.484375 0 " clip-rule="nonzero"/></clipPath><clipPath id="5e472a1d6c"><path d="M 9.484375 12 L 20 12 L 20 20 L 9.484375 20 Z M 9.484375 12 " clip-rule="nonzero"/></clipPath><clipPath id="4011cf368f"><path d="M 17 9.320312 L 19 9.320312 L 19 11 L 17 11 Z M 17 9.320312 " clip-rule="nonzero"/></clipPath><clipPath id="85930f4863"><path d="M 14 9.320312 L 16 9.320312 L 16 10 L 14 10 Z M 14 9.320312 " clip-rule="nonzero"/></clipPath><clipPath id="9fac802c82"><path d="M 16 9.320312 L 17 9.320312 L 17 10 L 16 10 Z M 16 9.320312 " clip-rule="nonzero"/></clipPath><clipPath id="7bcd25fde9"><path d="M 13 9.320312 L 15 9.320312 L 15 11 L 13 11 Z M 13 9.320312 " clip-rule="nonzero"/></clipPath></defs><g clip-path="url(#d885361c79)"><path fill="#ffffff" d="M 0.484375 0 L 29.515625 0 L 29.515625 29.03125 L 0.484375 29.03125 Z M 0.484375 0 " fill-opacity="1" fill-rule="nonzero"/><path fill="#ffffff" d="M 0.484375 0 L 29.515625 0 L 29.515625 29.03125 L 0.484375 29.03125 Z M 0.484375 0 " fill-opacity="1" fill-rule="nonzero"/></g><path fill="#5e17eb" d="M 15.875 14.691406 C 15.875 14.761719 15.839844 14.796875 15.769531 14.796875 C 15.699219 14.796875 15.664062 14.761719 15.664062 14.691406 C 15.664062 14.621094 15.699219 14.589844 15.769531 14.589844 C 15.839844 14.589844 15.875 14.621094 15.875 14.691406 Z M 15.875 14.691406 " fill-opacity="1" fill-rule="nonzero"/><g clip-path="url(#5e472a1d6c)"><path fill="#5e17eb" d="M 19.292969 17.875 C 17.886719 19.347656 15.714844 19.78125 13.851562 18.953125 C 11.496094 17.914062 10.367188 15.207031 11.285156 12.8125 L 11.65625 14.378906 C 11.667969 14.46875 11.757812 14.535156 11.851562 14.507812 C 11.945312 14.484375 11.996094 14.402344 11.96875 14.3125 C 11.96875 14.3125 11.457031 12.144531 11.457031 12.144531 C 11.445312 12.089844 11.40625 12.039062 11.339844 12.023438 C 11.285156 12.011719 11.21875 12.023438 11.179688 12.0625 L 9.550781 13.71875 C 9.484375 13.785156 9.484375 13.890625 9.550781 13.957031 C 9.617188 14.023438 9.722656 14.023438 9.789062 13.957031 L 10.957031 12.773438 C 9.984375 15.457031 11.363281 18.414062 14.046875 19.386719 C 15.964844 20.082031 18.121094 19.582031 19.542969 18.109375 C 19.609375 18.046875 19.609375 17.941406 19.554688 17.875 C 19.425781 17.769531 19.320312 17.863281 19.292969 17.875 Z M 19.292969 17.875 " fill-opacity="1" fill-rule="nonzero"/></g><g clip-path="url(#4011cf368f)"><path fill="#5e17eb" d="M 18.097656 10.289062 C 18.175781 10.328125 18.265625 10.300781 18.320312 10.222656 C 18.359375 10.144531 18.332031 10.039062 18.253906 10 C 18.253906 10 17.714844 9.75 17.636719 9.722656 C 17.558594 9.683594 17.453125 9.722656 17.414062 9.800781 C 17.371094 9.882812 17.414062 9.988281 17.492188 10.027344 C 17.503906 10.011719 17.992188 10.222656 18.097656 10.289062 Z M 18.097656 10.289062 " fill-opacity="1" fill-rule="nonzero"/></g><g clip-path="url(#85930f4863)"><path fill="#5e17eb" d="M 14.730469 9.816406 C 14.742188 9.816406 15.175781 9.738281 15.386719 9.722656 C 15.480469 9.710938 15.546875 9.632812 15.53125 9.554688 C 15.53125 9.460938 15.441406 9.394531 15.347656 9.394531 C 15.347656 9.394531 14.902344 9.449219 14.679688 9.5 C 14.585938 9.527344 14.535156 9.605469 14.558594 9.699219 C 14.585938 9.761719 14.652344 9.816406 14.730469 9.816406 Z M 14.730469 9.816406 " fill-opacity="1" fill-rule="nonzero"/></g><path fill="#5e17eb" d="M 19.214844 11.117188 C 19.238281 11.144531 19.34375 11.210938 19.449219 11.117188 C 19.515625 11.050781 19.515625 10.945312 19.449219 10.878906 C 19.292969 10.722656 19.121094 10.578125 18.9375 10.433594 C 18.859375 10.382812 18.765625 10.394531 18.699219 10.460938 C 18.648438 10.539062 18.660156 10.632812 18.726562 10.695312 C 18.910156 10.828125 19.070312 10.972656 19.214844 11.117188 Z M 19.214844 11.117188 " fill-opacity="1" fill-rule="nonzero"/><g clip-path="url(#9fac802c82)"><path fill="#5e17eb" d="M 16.792969 9.800781 C 16.792969 9.800781 16.953125 9.84375 16.992188 9.671875 C 17.019531 9.554688 16.9375 9.488281 16.875 9.472656 C 16.648438 9.433594 16.425781 9.394531 16.203125 9.382812 C 16.109375 9.367188 16.03125 9.433594 16.019531 9.527344 C 16.003906 9.617188 16.070312 9.699219 16.164062 9.710938 C 16.152344 9.710938 16.585938 9.761719 16.792969 9.800781 Z M 16.792969 9.800781 " fill-opacity="1" fill-rule="nonzero"/></g><g clip-path="url(#7bcd25fde9)"><path fill="#5e17eb" d="M 13.46875 10.300781 C 13.652344 10.195312 13.851562 10.117188 14.046875 10.039062 C 14.125 10 14.179688 9.90625 14.140625 9.828125 C 14.097656 9.75 14.007812 9.699219 13.929688 9.738281 C 13.71875 9.816406 13.507812 9.921875 13.3125 10.027344 C 13.230469 10.066406 13.191406 10.171875 13.246094 10.25 C 13.324219 10.367188 13.441406 10.316406 13.46875 10.300781 Z M 13.46875 10.300781 " fill-opacity="1" fill-rule="nonzero"/></g><path fill="#5e17eb" d="M 20.527344 13.535156 C 20.542969 13.613281 20.605469 13.695312 20.726562 13.667969 C 20.816406 13.65625 20.871094 13.5625 20.855469 13.46875 C 20.855469 13.46875 20.75 13.023438 20.671875 12.8125 C 20.644531 12.722656 20.554688 12.683594 20.460938 12.707031 C 20.382812 12.734375 20.332031 12.828125 20.355469 12.90625 C 20.355469 12.917969 20.488281 13.324219 20.527344 13.535156 Z M 20.527344 13.535156 " fill-opacity="1" fill-rule="nonzero"/><path fill="#5e17eb" d="M 20.699219 15.5625 C 20.605469 15.535156 20.527344 15.585938 20.5 15.679688 C 20.449219 15.890625 20.382812 16.085938 20.316406 16.285156 C 20.292969 16.363281 20.332031 16.46875 20.410156 16.496094 C 20.515625 16.535156 20.59375 16.46875 20.621094 16.402344 C 20.699219 16.191406 20.765625 15.96875 20.816406 15.757812 C 20.84375 15.664062 20.792969 15.585938 20.699219 15.5625 Z M 20.699219 15.5625 " fill-opacity="1" fill-rule="nonzero"/><path fill="#5e17eb" d="M 20.199219 16.914062 C 20.121094 16.875 20.015625 16.902344 19.976562 16.96875 C 19.871094 17.152344 19.753906 17.324219 19.621094 17.492188 C 19.570312 17.570312 19.582031 17.664062 19.648438 17.730469 C 19.714844 17.796875 19.816406 17.769531 19.882812 17.703125 C 20.027344 17.519531 20.148438 17.335938 20.265625 17.136719 C 20.304688 17.058594 20.277344 16.953125 20.199219 16.914062 Z M 20.199219 16.914062 " fill-opacity="1" fill-rule="nonzero"/><path fill="#5e17eb" d="M 20.960938 14.273438 C 20.960938 14.179688 20.882812 14.113281 20.792969 14.113281 C 20.699219 14.113281 20.632812 14.195312 20.632812 14.285156 C 20.632812 14.363281 20.632812 14.796875 20.621094 14.929688 C 20.605469 15.023438 20.6875 15.101562 20.765625 15.101562 C 20.765625 15.101562 20.9375 15.128906 20.949219 14.941406 C 20.960938 14.824219 20.960938 14.363281 20.960938 14.273438 Z M 20.960938 14.273438 " fill-opacity="1" fill-rule="nonzero"/><path fill="#5e17eb" d="M 20.054688 12.234375 C 20.082031 12.289062 20.1875 12.339844 20.277344 12.300781 C 20.421875 12.234375 20.355469 12.101562 20.34375 12.078125 C 20.238281 11.878906 20.121094 11.683594 19.976562 11.5 C 19.921875 11.417969 19.804688 11.40625 19.738281 11.472656 C 19.671875 11.523438 19.660156 11.617188 19.714844 11.695312 C 19.714844 11.695312 19.949219 12.050781 20.054688 12.234375 Z M 20.054688 12.234375 " fill-opacity="1" fill-rule="nonzero"/><path fill="#5e17eb" d="M 17.542969 11.867188 C 17.597656 11.867188 17.648438 11.839844 17.6875 11.789062 L 17.820312 11.5625 C 17.859375 11.484375 17.820312 11.378906 17.742188 11.339844 C 17.675781 11.300781 17.582031 11.328125 17.53125 11.394531 L 17.398438 11.617188 C 17.320312 11.722656 17.398438 11.855469 17.542969 11.867188 Z M 17.542969 11.867188 " fill-opacity="1" fill-rule="nonzero"/><path fill="#5e17eb" d="M 15.875 11.378906 C 15.964844 11.378906 16.03125 11.316406 16.03125 11.222656 L 16.03125 10.960938 C 16.03125 10.867188 15.953125 10.800781 15.875 10.800781 C 15.796875 10.800781 15.714844 10.878906 15.714844 10.960938 L 15.714844 11.222656 C 15.714844 11.300781 15.78125 11.378906 15.875 11.378906 Z M 15.875 11.378906 " fill-opacity="1" fill-rule="nonzero"/><path fill="#5e17eb" d="M 13.980469 11.261719 C 13.902344 11.300781 13.875 11.40625 13.914062 11.484375 L 14.046875 11.707031 C 14.074219 11.761719 14.164062 11.828125 14.269531 11.773438 C 14.347656 11.734375 14.375 11.628906 14.335938 11.550781 C 14.335938 11.550781 14.203125 11.328125 14.203125 11.328125 C 14.140625 11.195312 14.007812 11.25 13.980469 11.261719 Z M 13.980469 11.261719 " fill-opacity="1" fill-rule="nonzero"/><path fill="#5e17eb" d="M 12.730469 16.441406 L 12.957031 16.308594 C 13.035156 16.269531 13.0625 16.164062 13.023438 16.085938 C 12.980469 16.007812 12.875 15.980469 12.796875 16.019531 L 12.574219 16.152344 C 12.496094 16.191406 12.46875 16.296875 12.507812 16.375 C 12.535156 16.441406 12.613281 16.507812 12.730469 16.441406 Z M 12.730469 16.441406 " fill-opacity="1" fill-rule="nonzero"/><path fill="#5e17eb" d="M 13.808594 17.558594 C 13.757812 17.636719 13.796875 17.796875 13.953125 17.808594 C 14.007812 17.808594 14.058594 17.78125 14.097656 17.730469 L 14.230469 17.507812 C 14.285156 17.425781 14.257812 17.324219 14.179688 17.28125 C 14.097656 17.230469 14.007812 17.257812 13.953125 17.335938 C 13.941406 17.335938 13.808594 17.558594 13.808594 17.558594 Z M 13.808594 17.558594 " fill-opacity="1" fill-rule="nonzero"/><path fill="#5e17eb" d="M 15.585938 17.902344 L 15.585938 18.164062 C 15.585938 18.253906 15.652344 18.335938 15.742188 18.335938 C 15.835938 18.335938 15.902344 18.269531 15.902344 18.175781 L 15.902344 17.914062 C 15.914062 17.675781 15.585938 17.664062 15.585938 17.902344 Z M 15.585938 17.902344 " fill-opacity="1" fill-rule="nonzero"/><path fill="#5e17eb" d="M 17.347656 17.347656 C 17.269531 17.386719 17.242188 17.492188 17.28125 17.570312 L 17.414062 17.796875 C 17.4375 17.847656 17.492188 17.886719 17.558594 17.886719 C 17.582031 17.886719 17.609375 17.875 17.636719 17.863281 C 17.714844 17.820312 17.742188 17.71875 17.703125 17.636719 L 17.570312 17.414062 C 17.53125 17.335938 17.425781 17.308594 17.347656 17.347656 Z M 17.347656 17.347656 " fill-opacity="1" fill-rule="nonzero"/><path fill="#5e17eb" d="M 18.976562 16.285156 L 18.753906 16.152344 C 18.675781 16.101562 18.570312 16.125 18.53125 16.203125 C 18.492188 16.285156 18.503906 16.375 18.582031 16.429688 C 18.582031 16.429688 18.582031 16.429688 18.59375 16.429688 L 18.820312 16.558594 C 18.898438 16.613281 19.003906 16.585938 19.042969 16.507812 C 19.042969 16.507812 19.042969 16.507812 19.042969 16.496094 C 19.082031 16.429688 19.054688 16.324219 18.976562 16.285156 Z M 18.976562 16.285156 " fill-opacity="1" fill-rule="nonzero"/><path fill="#5e17eb" d="M 19.160156 14.457031 C 19.070312 14.457031 19.003906 14.523438 18.988281 14.613281 C 18.988281 14.707031 19.054688 14.785156 19.148438 14.785156 L 19.410156 14.785156 C 19.503906 14.785156 19.570312 14.707031 19.570312 14.628906 C 19.570312 14.546875 19.488281 14.46875 19.410156 14.46875 L 19.160156 14.46875 Z M 19.160156 14.457031 " fill-opacity="1" fill-rule="nonzero"/><path fill="#5e17eb" d="M 18.742188 13.117188 C 18.765625 13.117188 18.792969 13.101562 18.820312 13.089844 L 19.042969 12.957031 C 19.121094 12.917969 19.148438 12.8125 19.109375 12.734375 C 19.070312 12.65625 18.964844 12.628906 18.886719 12.667969 L 18.660156 12.800781 C 18.582031 12.839844 18.554688 12.945312 18.59375 13.023438 C 18.621094 13.074219 18.675781 13.101562 18.742188 13.117188 Z M 18.742188 13.117188 " fill-opacity="1" fill-rule="nonzero"/><path fill="#5e17eb" d="M 15.835938 14.734375 C 15.847656 14.71875 15.847656 14.691406 15.847656 14.679688 C 15.847656 14.667969 15.835938 14.640625 15.820312 14.628906 C 15.808594 14.613281 15.78125 14.613281 15.769531 14.613281 C 15.757812 14.613281 15.730469 14.628906 15.714844 14.640625 C 15.691406 14.667969 15.691406 14.71875 15.714844 14.746094 C 15.757812 14.773438 15.796875 14.773438 15.835938 14.734375 Z M 15.835938 14.734375 " fill-opacity="1" fill-rule="nonzero"/><path fill="#5e17eb" d="M 15.796875 17.53125 C 17.453125 17.53125 18.78125 16.191406 18.78125 14.546875 C 18.78125 12.90625 17.453125 11.5625 15.796875 11.5625 C 14.140625 11.5625 12.8125 12.890625 12.8125 14.546875 C 12.8125 16.191406 14.152344 17.53125 15.796875 17.53125 Z M 13.914062 13.023438 C 13.980469 12.957031 14.085938 12.945312 14.152344 13.011719 L 15.613281 14.3125 C 15.652344 14.285156 15.703125 14.285156 15.757812 14.273438 C 15.808594 14.273438 15.847656 14.273438 15.902344 14.285156 L 17.464844 12.539062 C 17.519531 12.472656 17.621094 12.445312 17.703125 12.511719 C 17.765625 12.5625 17.792969 12.667969 17.726562 12.746094 C 17.726562 12.746094 16.136719 14.523438 16.136719 14.523438 C 16.164062 14.5625 16.164062 14.613281 16.175781 14.667969 C 16.175781 14.890625 16.003906 15.074219 15.78125 15.074219 C 15.558594 15.074219 15.375 14.902344 15.375 14.679688 C 15.375 14.640625 15.375 14.601562 15.386719 14.5625 L 13.929688 13.246094 C 13.863281 13.195312 13.863281 13.089844 13.914062 13.023438 Z M 13.914062 13.023438 " fill-opacity="1" fill-rule="nonzero"/></svg>