<svg xmlns="http://www.w3.org/2000/svg" xmlns:xlink="http://www.w3.org/1999/xlink" width="120" zoomAndPan="magnify" viewBox="0 0 90 89.999999" height="120" preserveAspectRatio="xMidYMid meet" version="1.0"><defs><clipPath id="898ea403ca"><path d="M 1.640625 9 L 88.640625 9 L 88.640625 81.75 L 1.640625 81.75 Z M 1.640625 9 " clip-rule="nonzero"/></clipPath></defs><rect x="-9" width="108" fill="#ffffff" y="-9" height="107.999999" fill-opacity="1"/><rect x="-9" width="108" fill="#ffffff" y="-9" height="107.999999" fill-opacity="1"/><g clip-path="url(#898ea403ca)"><path fill="#5271ff" d="M 26.433594 80.972656 C 26.433594 80.972656 25.96875 81.078125 25.480469 81.0625 C 25.003906 81.046875 23.957031 80.910156 24.195312 80.910156 C 24.433594 80.914062 24.734375 80.484375 24.734375 80.484375 L 24.320312 80.425781 L 24.308594 80.089844 L 24.976562 80.082031 L 29.613281 70.003906 C 29.613281 70.003906 30.1875 69.996094 30.199219 69.949219 C 29.628906 69.933594 29.246094 69.96875 29.199219 69.894531 C 29.234375 69.800781 34.222656 58.742188 34.359375 58.5 C 34.417969 58.394531 34.90625 58.457031 34.90625 58.457031 L 35.351562 55.601562 L 34.96875 55.589844 C 34.96875 55.589844 35.851562 49.582031 35.742188 49.417969 C 35.636719 49.25 29.171875 49.535156 24.796875 49.222656 C 20.417969 48.910156 18.066406 48.410156 17.222656 48.191406 C 16.433594 47.988281 16.257812 48.148438 15.921875 48.527344 C 15.585938 48.90625 9.878906 56.527344 9.386719 57.167969 C 8.902344 57.796875 8.683594 57.804688 8.394531 57.804688 C 8.011719 57.800781 5.503906 57.800781 5.503906 57.800781 L 8.15625 47.164062 C 8.15625 47.164062 7.097656 47.097656 6.945312 46.941406 C 6.792969 46.785156 6.851562 46.464844 6.851562 46.464844 C 6.851562 46.464844 4.652344 46.238281 4.511719 46.117188 C 4.367188 46 4.296875 45.796875 4.296875 45.796875 C 4.296875 45.796875 2.03125 45.308594 1.972656 45.089844 L 1.96875 45.089844 C 1.96875 45.085938 1.96875 45.085938 1.972656 45.085938 C 1.96875 45.082031 1.96875 45.082031 1.96875 45.082031 L 1.972656 45.082031 C 2.03125 44.863281 4.304688 44.398438 4.304688 44.398438 C 4.304688 44.398438 4.378906 44.199219 4.523438 44.082031 C 4.664062 43.960938 6.867188 43.761719 6.867188 43.761719 C 6.867188 43.761719 6.8125 43.4375 6.964844 43.285156 C 7.121094 43.132812 8.179688 43.078125 8.179688 43.078125 L 5.648438 32.410156 C 5.648438 32.410156 8.160156 32.4375 8.539062 32.441406 C 8.828125 32.441406 9.050781 32.453125 9.523438 33.089844 C 10.007812 33.734375 15.628906 41.417969 15.960938 41.800781 C 16.292969 42.183594 16.464844 42.347656 17.253906 42.152344 C 18.101562 41.945312 20.460938 41.46875 24.84375 41.210938 C 29.222656 40.949219 35.683594 41.308594 35.792969 41.140625 C 35.898438 40.976562 35.089844 34.960938 35.089844 34.960938 L 35.46875 34.953125 L 35.058594 32.09375 C 35.058594 32.09375 34.570312 32.148438 34.511719 32.042969 C 34.378906 31.800781 29.519531 20.683594 29.484375 20.589844 C 29.53125 20.515625 29.910156 20.554688 30.484375 20.546875 C 30.472656 20.5 29.898438 20.484375 29.898438 20.484375 L 25.375 10.351562 L 24.710938 10.335938 L 24.722656 10.003906 L 25.140625 9.949219 C 25.140625 9.949219 24.84375 9.515625 24.609375 9.515625 C 24.371094 9.515625 25.414062 9.390625 25.894531 9.378906 C 26.382812 9.371094 26.84375 9.480469 26.84375 9.480469 C 26.84375 9.480469 26.742188 9.136719 27.191406 9.175781 C 27.480469 9.199219 28.792969 10.101562 28.792969 10.101562 C 28.792969 10.101562 28.992188 10.164062 29.128906 10.152344 C 29.292969 10.140625 29.394531 10.339844 29.488281 10.445312 C 29.542969 10.507812 29.835938 10.441406 29.835938 10.441406 C 29.835938 10.441406 32.6875 13.804688 37.152344 19.632812 C 41.609375 25.449219 47.074219 32.335938 47.074219 32.335938 C 47.074219 32.335938 47.394531 32.339844 47.839844 32.277344 C 48.28125 32.21875 48.472656 32.171875 48.472656 32.171875 C 48.472656 32.171875 48.585938 31.824219 48.871094 31.730469 C 49.085938 31.660156 50.636719 31.484375 52.03125 31.523438 C 53.429688 31.566406 54.15625 31.648438 54.378906 31.746094 C 54.601562 31.839844 54.695312 32.164062 54.753906 32.570312 C 54.816406 33 54.765625 34.664062 54.707031 35.0625 C 54.652344 35.441406 54.59375 35.679688 54.054688 35.742188 C 53.515625 35.800781 51.65625 35.808594 50.898438 35.753906 C 50.355469 35.71875 49.738281 35.574219 49.707031 35.652344 C 49.675781 35.730469 51.015625 37.121094 51.550781 37.886719 C 52.085938 38.648438 53.203125 39.957031 53.554688 40.117188 C 53.902344 40.277344 53.949219 40.296875 53.632812 40.386719 C 53.3125 40.480469 52.996094 40.464844 52.773438 40.335938 C 52.554688 40.207031 52.265625 40.144531 52.140625 40.269531 C 52.09375 40.316406 52.40625 40.699219 52.597656 40.796875 C 52.789062 40.890625 53.152344 40.796875 53.3125 40.863281 C 53.46875 40.925781 53.929688 41.179688 54.308594 41.167969 C 56.578125 41.121094 59.972656 41.0625 67.402344 41.085938 C 75.347656 41.113281 77.722656 41.207031 81.960938 42.234375 C 85.808594 43.167969 86.566406 43.855469 87.121094 44.210938 C 87.632812 44.535156 88.027344 45.269531 88.035156 45.578125 C 88.035156 45.578125 88.035156 45.578125 88.035156 45.582031 C 88.035156 45.582031 88.035156 45.582031 88.035156 45.585938 C 88.027344 45.890625 87.621094 46.621094 87.105469 46.941406 C 86.546875 47.289062 85.78125 47.96875 81.921875 48.859375 C 77.671875 49.835938 75.296875 49.902344 67.351562 49.835938 C 59.925781 49.777344 56.527344 49.679688 54.261719 49.601562 C 53.878906 49.589844 53.417969 49.835938 53.257812 49.898438 C 53.101562 49.960938 52.734375 49.863281 52.542969 49.957031 C 52.355469 50.050781 52.035156 50.429688 52.082031 50.480469 C 52.207031 50.605469 52.492188 50.546875 52.714844 50.417969 C 52.9375 50.292969 53.257812 50.277344 53.574219 50.375 C 53.890625 50.472656 53.84375 50.488281 53.492188 50.644531 C 53.140625 50.800781 52.007812 52.097656 51.464844 52.855469 C 50.921875 53.613281 49.5625 54.988281 49.59375 55.066406 C 49.625 55.144531 50.242188 55.007812 50.785156 54.976562 C 51.546875 54.933594 53.402344 54.960938 53.941406 55.027344 C 54.480469 55.09375 54.539062 55.332031 54.589844 55.714844 C 54.644531 56.113281 54.671875 57.777344 54.605469 58.207031 C 54.542969 58.613281 54.445312 58.933594 54.222656 59.027344 C 54 59.121094 53.269531 59.199219 51.871094 59.222656 C 50.476562 59.246094 48.929688 59.054688 48.714844 58.980469 C 48.429688 58.882812 48.320312 58.535156 48.320312 58.535156 C 48.320312 58.535156 48.132812 58.484375 47.6875 58.417969 C 47.242188 58.351562 46.925781 58.351562 46.925781 58.351562 C 46.925781 58.351562 41.378906 65.175781 36.855469 70.941406 C 32.324219 76.714844 29.433594 80.046875 29.433594 80.046875 C 29.433594 80.046875 29.140625 79.976562 29.085938 80.039062 C 28.996094 80.144531 28.886719 80.339844 28.726562 80.324219 C 28.585938 80.3125 28.390625 80.375 28.390625 80.375 C 28.390625 80.375 27.066406 81.261719 26.777344 81.285156 C 26.324219 81.316406 26.433594 80.972656 26.433594 80.972656 Z M 30.171875 11.582031 L 29.660156 10.90625 L 29.585938 10.964844 L 30.101562 11.644531 Z M 31.195312 12.933594 L 30.230469 11.65625 L 30.15625 11.71875 L 31.121094 12.988281 Z M 32.222656 14.285156 L 31.253906 13.007812 L 31.175781 13.066406 L 32.140625 14.335938 Z M 33.511719 15.992188 L 32.277344 14.363281 L 32.195312 14.414062 L 33.433594 16.046875 Z M 34.703125 17.566406 L 33.570312 16.066406 L 33.492188 16.125 L 34.628906 17.621094 Z M 35.90625 19.15625 L 34.761719 17.640625 L 34.683594 17.699219 L 35.828125 19.210938 Z M 37.152344 20.800781 L 35.964844 19.230469 L 35.886719 19.285156 L 37.082031 20.863281 Z M 38.410156 22.460938 L 37.210938 20.875 L 37.140625 20.941406 L 38.332031 22.511719 Z M 39.65625 24.105469 L 38.46875 22.535156 L 38.390625 22.589844 L 39.574219 24.152344 Z M 40.894531 25.738281 L 39.714844 24.183594 L 39.632812 24.230469 L 40.816406 25.792969 Z M 42.082031 27.308594 L 40.953125 25.816406 L 40.875 25.871094 L 42.007812 27.367188 Z M 43.269531 28.878906 L 42.140625 27.386719 L 42.066406 27.441406 L 43.1875 28.925781 Z M 44.671875 30.726562 L 43.328125 28.957031 L 43.246094 29.003906 L 44.582031 30.769531 Z M 45.039062 31.210938 L 44.730469 30.804688 L 44.640625 30.84375 L 44.945312 31.25 Z M 46.183594 32.726562 L 45.097656 31.289062 L 45.003906 31.328125 L 46.109375 32.78125 Z M 46.039062 57.949219 L 45.964844 57.890625 L 44.84375 59.335938 L 44.933594 59.375 Z M 44.875 59.449219 L 44.785156 59.414062 L 44.472656 59.8125 L 44.5625 59.851562 Z M 44.503906 59.929688 L 44.414062 59.890625 L 43.058594 61.636719 L 43.140625 61.6875 Z M 43.082031 61.761719 L 43 61.714844 L 41.859375 63.183594 L 41.933594 63.242188 Z M 41.875 63.316406 L 41.800781 63.261719 L 40.648438 64.746094 L 40.726562 64.800781 Z M 40.667969 64.875 L 40.589844 64.820312 L 39.390625 66.371094 L 39.472656 66.417969 Z M 39.414062 66.492188 L 39.332031 66.445312 L 38.128906 67.996094 L 38.207031 68.050781 Z M 38.148438 68.125 L 38.070312 68.070312 L 36.859375 69.628906 L 36.929688 69.695312 Z M 36.871094 69.769531 L 36.800781 69.707031 L 35.589844 71.269531 L 35.664062 71.324219 Z M 35.605469 71.402344 L 35.53125 71.34375 L 34.367188 72.84375 L 34.445312 72.902344 Z M 34.382812 72.976562 L 34.308594 72.917969 L 33.15625 74.40625 L 33.234375 74.460938 Z M 33.175781 74.535156 L 33.097656 74.480469 L 31.839844 76.101562 L 31.921875 76.152344 Z M 31.863281 76.226562 L 31.78125 76.175781 L 30.808594 77.4375 L 30.882812 77.496094 Z M 30.824219 77.570312 L 30.75 77.511719 L 29.773438 78.769531 L 29.84375 78.835938 Z M 29.785156 78.910156 L 29.714844 78.84375 L 29.191406 79.519531 L 29.265625 79.578125 Z M 29.785156 78.910156 " fill-opacity="1" fill-rule="evenodd"/></g></svg>