<svg xmlns="http://www.w3.org/2000/svg" xmlns:xlink="http://www.w3.org/1999/xlink" width="80" zoomAndPan="magnify" viewBox="0 0 60 60" height="80" preserveAspectRatio="xMidYMid meet" version="1.0"><defs><g/><clipPath id="ca972137a3"><path d="M 3.941406 3.941406 L 55.691406 3.941406 L 55.691406 55.691406 L 3.941406 55.691406 Z M 3.941406 3.941406 " clip-rule="nonzero"/></clipPath><clipPath id="c870a743fb"><path d="M 6.117188 48.984375 L 21.617188 48.984375 C 22.816406 48.984375 23.792969 48.007812 23.792969 46.804688 L 23.792969 18.734375 L 48.441406 18.734375 C 48.671875 18.734375 48.855469 18.550781 48.855469 18.324219 L 48.855469 4.351562 C 48.855469 4.125 48.671875 3.941406 48.441406 3.941406 L 19.257812 3.941406 C 19.03125 3.941406 18.84375 4.125 18.84375 4.351562 L 18.84375 12.570312 L 6.117188 12.570312 C 6.113281 12.570312 6.109375 12.574219 6.105469 12.574219 C 6.097656 12.574219 6.09375 12.574219 6.089844 12.574219 C 4.902344 12.589844 3.941406 13.558594 3.941406 14.75 L 3.941406 46.804688 C 3.941406 48.007812 4.917969 48.984375 6.117188 48.984375 Z M 21.617188 48.15625 L 6.117188 48.15625 C 5.519531 48.15625 5.015625 47.761719 4.839844 47.21875 L 22.894531 47.21875 C 22.71875 47.761719 22.214844 48.15625 21.617188 48.15625 Z M 19.234375 13.398438 C 19.242188 13.398438 19.25 13.402344 19.257812 13.402344 C 19.265625 13.402344 19.273438 13.398438 19.28125 13.398438 L 20.960938 13.398438 L 20.113281 15.175781 L 7.621094 15.175781 L 6.773438 13.398438 Z M 21.644531 12.574219 C 21.640625 12.574219 21.636719 12.574219 21.628906 12.574219 C 21.625 12.574219 21.621094 12.570312 21.617188 12.570312 L 21.308594 12.570312 L 21.308594 8.003906 C 22.191406 7.835938 22.890625 7.140625 23.058594 6.257812 L 44.644531 6.257812 C 44.8125 7.140625 45.507812 7.835938 46.390625 8.003906 L 46.390625 14.671875 C 45.507812 14.839844 44.8125 15.535156 44.644531 16.417969 L 23.792969 16.417969 L 23.792969 14.75 C 23.792969 13.558594 22.832031 12.589844 21.644531 12.574219 Z M 19.671875 4.765625 L 48.027344 4.765625 L 48.027344 17.910156 L 23.792969 17.910156 L 23.792969 17.246094 L 45.019531 17.246094 C 45.246094 17.246094 45.429688 17.058594 45.429688 16.832031 C 45.429688 16.074219 46.046875 15.460938 46.804688 15.460938 C 47.03125 15.460938 47.21875 15.273438 47.21875 15.046875 L 47.21875 7.628906 C 47.21875 7.402344 47.03125 7.214844 46.804688 7.214844 C 46.046875 7.214844 45.429688 6.601562 45.429688 5.84375 C 45.429688 5.617188 45.246094 5.429688 45.019531 5.429688 L 22.683594 5.429688 C 22.453125 5.429688 22.269531 5.617188 22.269531 5.84375 C 22.269531 6.601562 21.652344 7.214844 20.898438 7.214844 C 20.667969 7.214844 20.484375 7.402344 20.484375 7.628906 L 20.484375 12.570312 L 19.671875 12.570312 Z M 5.867188 13.425781 L 6.984375 15.765625 C 7.054688 15.910156 7.199219 16.003906 7.359375 16.003906 L 20.375 16.003906 C 20.535156 16.003906 20.679688 15.910156 20.75 15.765625 L 21.867188 13.425781 C 22.492188 13.542969 22.96875 14.089844 22.96875 14.75 L 22.96875 46.390625 L 4.765625 46.390625 L 4.765625 14.75 C 4.765625 14.089844 5.242188 13.542969 5.867188 13.425781 Z M 13.867188 38.390625 C 18.496094 38.390625 22.261719 34.625 22.261719 29.996094 C 22.261719 25.367188 18.496094 21.601562 13.867188 21.601562 C 9.238281 21.601562 5.472656 25.367188 5.472656 29.996094 C 5.472656 34.625 9.238281 38.390625 13.867188 38.390625 Z M 13.867188 22.429688 C 18.039062 22.429688 21.433594 25.824219 21.433594 29.996094 C 21.433594 34.167969 18.039062 37.5625 13.867188 37.5625 C 9.695312 37.5625 6.300781 34.167969 6.300781 29.996094 C 6.300781 25.824219 9.695312 22.429688 13.867188 22.429688 Z M 11.789062 32.488281 C 11.789062 32.257812 11.601562 32.074219 11.375 32.074219 C 11.144531 32.074219 10.960938 32.257812 10.960938 32.488281 C 10.960938 33.949219 12.046875 35.160156 13.453125 35.359375 L 13.453125 35.753906 C 13.453125 35.984375 13.640625 36.167969 13.867188 36.167969 C 14.09375 36.167969 14.28125 35.984375 14.28125 35.753906 L 14.28125 35.359375 C 15.6875 35.160156 16.773438 33.949219 16.773438 32.488281 C 16.773438 31.710938 16.46875 30.980469 15.921875 30.433594 C 15.472656 29.984375 14.898438 29.703125 14.28125 29.613281 L 14.28125 25.46875 C 15.230469 25.660156 15.945312 26.5 15.945312 27.503906 C 15.945312 27.730469 16.132812 27.917969 16.359375 27.917969 C 16.585938 27.917969 16.773438 27.730469 16.773438 27.503906 C 16.773438 26.042969 15.6875 24.832031 14.28125 24.632812 L 14.28125 24.238281 C 14.28125 24.007812 14.09375 23.824219 13.867188 23.824219 C 13.640625 23.824219 13.453125 24.007812 13.453125 24.238281 L 13.453125 24.632812 C 12.046875 24.832031 10.960938 26.042969 10.960938 27.503906 C 10.960938 28.964844 12.046875 30.175781 13.453125 30.375 L 13.453125 34.523438 C 12.503906 34.332031 11.789062 33.492188 11.789062 32.488281 Z M 15.335938 31.019531 C 15.730469 31.410156 15.945312 31.933594 15.945312 32.488281 C 15.945312 33.492188 15.230469 34.332031 14.28125 34.523438 L 14.28125 30.449219 C 14.679688 30.53125 15.042969 30.726562 15.335938 31.019531 Z M 11.789062 27.503906 C 11.789062 26.5 12.503906 25.660156 13.453125 25.46875 L 13.453125 29.539062 C 12.503906 29.347656 11.789062 28.507812 11.789062 27.503906 Z M 30.015625 35.429688 L 43.230469 35.429688 C 43.457031 35.429688 43.644531 35.242188 43.644531 35.015625 L 43.644531 30.738281 C 43.644531 30.511719 43.457031 30.328125 43.230469 30.328125 L 30.015625 30.328125 C 29.789062 30.328125 29.601562 30.511719 29.601562 30.738281 L 29.601562 35.015625 C 29.601562 35.242188 29.789062 35.429688 30.015625 35.429688 Z M 30.429688 31.152344 L 42.816406 31.152344 L 42.816406 34.601562 L 30.429688 34.601562 Z M 42.003906 32.878906 C 42.003906 33.105469 41.820312 33.292969 41.589844 33.292969 L 35.925781 33.292969 C 35.699219 33.292969 35.515625 33.105469 35.515625 32.878906 C 35.515625 32.648438 35.699219 32.464844 35.925781 32.464844 L 41.589844 32.464844 C 41.820312 32.464844 42.003906 32.648438 42.003906 32.878906 Z M 34.671875 32.878906 C 34.671875 33.105469 34.488281 33.292969 34.257812 33.292969 L 31.652344 33.292969 C 31.425781 33.292969 31.242188 33.105469 31.242188 32.878906 C 31.242188 32.648438 31.425781 32.464844 31.652344 32.464844 L 34.257812 32.464844 C 34.488281 32.464844 34.671875 32.648438 34.671875 32.878906 Z M 37.765625 36.457031 L 35.480469 36.457031 C 35.25 36.457031 35.066406 36.644531 35.066406 36.871094 L 35.066406 39.15625 C 35.066406 39.386719 35.25 39.570312 35.480469 39.570312 L 37.765625 39.570312 C 37.992188 39.570312 38.179688 39.386719 38.179688 39.15625 L 38.179688 36.871094 C 38.179688 36.644531 37.992188 36.457031 37.765625 36.457031 Z M 37.351562 38.742188 L 35.894531 38.742188 L 35.894531 37.285156 L 37.351562 37.285156 Z M 37.765625 40.269531 L 35.480469 40.269531 C 35.25 40.269531 35.066406 40.457031 35.066406 40.683594 L 35.066406 42.96875 C 35.066406 43.195312 35.25 43.382812 35.480469 43.382812 L 37.765625 43.382812 C 37.992188 43.382812 38.179688 43.195312 38.179688 42.96875 L 38.179688 40.683594 C 38.179688 40.457031 37.992188 40.269531 37.765625 40.269531 Z M 37.351562 42.554688 L 35.894531 42.554688 L 35.894531 41.097656 L 37.351562 41.097656 Z M 37.765625 44.082031 L 35.480469 44.082031 C 35.25 44.082031 35.066406 44.265625 35.066406 44.496094 L 35.066406 46.78125 C 35.066406 47.007812 35.25 47.195312 35.480469 47.195312 L 37.765625 47.195312 C 37.992188 47.195312 38.179688 47.007812 38.179688 46.78125 L 38.179688 44.496094 C 38.179688 44.265625 37.992188 44.082031 37.765625 44.082031 Z M 37.351562 46.367188 L 35.894531 46.367188 L 35.894531 44.910156 L 37.351562 44.910156 Z M 32.796875 36.457031 L 30.511719 36.457031 C 30.28125 36.457031 30.097656 36.644531 30.097656 36.871094 L 30.097656 39.15625 C 30.097656 39.386719 30.28125 39.570312 30.511719 39.570312 L 32.796875 39.570312 C 33.023438 39.570312 33.210938 39.386719 33.210938 39.15625 L 33.210938 36.871094 C 33.210938 36.644531 33.023438 36.457031 32.796875 36.457031 Z M 32.382812 38.742188 L 30.925781 38.742188 L 30.925781 37.285156 L 32.382812 37.285156 Z M 32.796875 40.269531 L 30.511719 40.269531 C 30.28125 40.269531 30.097656 40.457031 30.097656 40.683594 L 30.097656 42.96875 C 30.097656 43.195312 30.28125 43.382812 30.511719 43.382812 L 32.796875 43.382812 C 33.023438 43.382812 33.210938 43.195312 33.210938 42.96875 L 33.210938 40.683594 C 33.210938 40.457031 33.023438 40.269531 32.796875 40.269531 Z M 32.382812 42.554688 L 30.925781 42.554688 L 30.925781 41.097656 L 32.382812 41.097656 Z M 32.796875 44.082031 L 30.511719 44.082031 C 30.28125 44.082031 30.097656 44.265625 30.097656 44.496094 L 30.097656 46.78125 C 30.097656 47.007812 30.28125 47.195312 30.511719 47.195312 L 32.796875 47.195312 C 33.023438 47.195312 33.210938 47.007812 33.210938 46.78125 L 33.210938 44.496094 C 33.210938 44.265625 33.023438 44.082031 32.796875 44.082031 Z M 32.382812 46.367188 L 30.925781 46.367188 L 30.925781 44.910156 L 32.382812 44.910156 Z M 42.734375 36.457031 L 40.449219 36.457031 C 40.21875 36.457031 40.035156 36.644531 40.035156 36.871094 L 40.035156 39.15625 C 40.035156 39.386719 40.21875 39.570312 40.449219 39.570312 L 42.734375 39.570312 C 42.960938 39.570312 43.148438 39.386719 43.148438 39.15625 L 43.148438 36.871094 C 43.148438 36.644531 42.960938 36.457031 42.734375 36.457031 Z M 42.320312 38.742188 L 40.863281 38.742188 L 40.863281 37.285156 L 42.320312 37.285156 Z M 42.734375 40.269531 L 40.449219 40.269531 C 40.21875 40.269531 40.035156 40.457031 40.035156 40.683594 L 40.035156 42.96875 C 40.035156 43.195312 40.21875 43.382812 40.449219 43.382812 L 42.734375 43.382812 C 42.960938 43.382812 43.148438 43.195312 43.148438 42.96875 L 43.148438 40.683594 C 43.148438 40.457031 42.960938 40.269531 42.734375 40.269531 Z M 42.320312 42.554688 L 40.863281 42.554688 L 40.863281 41.097656 L 42.320312 41.097656 Z M 42.734375 44.082031 L 40.449219 44.082031 C 40.21875 44.082031 40.035156 44.265625 40.035156 44.496094 L 40.035156 46.78125 C 40.035156 47.007812 40.21875 47.195312 40.449219 47.195312 L 42.734375 47.195312 C 42.960938 47.195312 43.148438 47.007812 43.148438 46.78125 L 43.148438 44.496094 C 43.148438 44.265625 42.960938 44.082031 42.734375 44.082031 Z M 42.320312 46.367188 L 40.863281 46.367188 L 40.863281 44.910156 L 42.320312 44.910156 Z M 37.765625 47.894531 L 35.480469 47.894531 C 35.25 47.894531 35.066406 48.078125 35.066406 48.304688 L 35.066406 50.589844 C 35.066406 50.820312 35.25 51.003906 35.480469 51.003906 L 37.765625 51.003906 C 37.992188 51.003906 38.179688 50.820312 38.179688 50.589844 L 38.179688 48.304688 C 38.179688 48.078125 37.992188 47.894531 37.765625 47.894531 Z M 37.351562 50.179688 L 35.894531 50.179688 L 35.894531 48.71875 L 37.351562 48.71875 Z M 37.855469 23.5625 C 37.855469 23.335938 38.042969 23.148438 38.269531 23.148438 L 39.675781 23.148438 C 39.902344 23.148438 40.085938 23.335938 40.085938 23.5625 C 40.085938 23.792969 39.902344 23.976562 39.675781 23.976562 L 38.269531 23.976562 C 38.042969 23.976562 37.855469 23.792969 37.855469 23.5625 Z M 37.09375 23.5625 C 37.09375 23.792969 36.90625 23.976562 36.679688 23.976562 L 33.53125 23.976562 C 33.304688 23.976562 33.117188 23.792969 33.117188 23.5625 C 33.117188 23.335938 33.304688 23.148438 33.53125 23.148438 L 36.679688 23.148438 C 36.90625 23.148438 37.09375 23.335938 37.09375 23.5625 Z M 40.085938 25.171875 C 40.085938 25.398438 39.902344 25.585938 39.671875 25.585938 L 38.269531 25.585938 C 38.042969 25.585938 37.855469 25.398438 37.855469 25.171875 C 37.855469 24.941406 38.042969 24.757812 38.269531 24.757812 L 39.671875 24.757812 C 39.902344 24.757812 40.085938 24.941406 40.085938 25.171875 Z M 37.09375 25.171875 C 37.09375 25.398438 36.90625 25.585938 36.679688 25.585938 L 33.53125 25.585938 C 33.304688 25.585938 33.117188 25.398438 33.117188 25.171875 C 33.117188 24.941406 33.304688 24.757812 33.53125 24.757812 L 36.679688 24.757812 C 36.90625 24.757812 37.09375 24.941406 37.09375 25.171875 Z M 40.085938 26.816406 C 40.085938 27.046875 39.902344 27.230469 39.671875 27.230469 L 38.269531 27.230469 C 38.042969 27.230469 37.855469 27.046875 37.855469 26.816406 C 37.855469 26.589844 38.042969 26.402344 38.269531 26.402344 L 39.671875 26.402344 C 39.902344 26.402344 40.085938 26.589844 40.085938 26.816406 Z M 37.09375 26.816406 C 37.09375 27.046875 36.90625 27.230469 36.679688 27.230469 L 33.53125 27.230469 C 33.304688 27.230469 33.117188 27.046875 33.117188 26.816406 C 33.117188 26.589844 33.304688 26.402344 33.53125 26.402344 L 36.679688 26.402344 C 36.90625 26.402344 37.09375 26.589844 37.09375 26.816406 Z M 54.28125 26.820312 L 46.714844 26.820312 C 45.738281 26.820312 44.941406 27.613281 44.941406 28.589844 L 44.941406 28.699219 C 44.410156 28.152344 43.667969 27.8125 42.847656 27.8125 L 41.75 27.8125 L 41.75 19.753906 C 41.75 19.597656 41.664062 19.457031 41.53125 19.386719 C 41.394531 19.316406 41.230469 19.324219 41.105469 19.410156 L 39.542969 20.457031 L 38.175781 19.421875 C 38.019531 19.304688 37.804688 19.3125 37.65625 19.441406 L 36.433594 20.503906 L 35.304688 19.449219 C 35.21875 19.371094 35.105469 19.332031 34.988281 19.339844 C 34.871094 19.347656 34.765625 19.40625 34.695312 19.5 L 33.679688 20.804688 L 32.144531 19.441406 C 32.023438 19.335938 31.847656 19.308594 31.699219 19.375 C 31.550781 19.441406 31.457031 19.589844 31.457031 19.75 L 31.457031 27.8125 L 30.394531 27.8125 C 28.785156 27.8125 27.476562 29.121094 27.476562 30.730469 L 27.476562 53.132812 C 27.476562 54.742188 28.785156 56.050781 30.394531 56.050781 L 42.847656 56.050781 C 44.460938 56.050781 45.769531 54.742188 45.769531 53.132812 L 45.769531 48.144531 L 47.390625 47.425781 C 47.539062 47.359375 47.636719 47.210938 47.636719 47.046875 L 47.636719 44.300781 L 54.28125 44.300781 C 55.257812 44.300781 56.054688 43.503906 56.054688 42.527344 L 56.054688 28.589844 C 56.054688 27.613281 55.257812 26.820312 54.28125 26.820312 Z M 32.285156 20.671875 L 33.460938 21.71875 C 33.546875 21.792969 33.660156 21.832031 33.773438 21.820312 C 33.886719 21.808594 33.992188 21.75 34.0625 21.660156 L 35.070312 20.363281 L 36.140625 21.363281 C 36.292969 21.507812 36.535156 21.511719 36.695312 21.375 L 37.945312 20.285156 L 39.277344 21.296875 C 39.417969 21.402344 39.613281 21.40625 39.757812 21.308594 L 40.921875 20.527344 L 40.921875 27.8125 L 32.285156 27.8125 Z M 28.300781 30.730469 C 28.300781 29.578125 29.242188 28.640625 30.394531 28.640625 L 42.847656 28.640625 C 44.003906 28.640625 44.941406 29.578125 44.941406 30.730469 L 44.941406 50.117188 C 44.941406 51.269531 44.003906 52.207031 42.847656 52.207031 L 30.394531 52.207031 C 29.242188 52.207031 28.300781 51.269531 28.300781 50.117188 Z M 44.941406 53.132812 C 44.941406 54.285156 44.003906 55.226562 42.847656 55.226562 L 30.394531 55.226562 C 29.242188 55.226562 28.300781 54.285156 28.300781 53.132812 L 28.300781 52.148438 C 28.832031 52.695312 29.574219 53.035156 30.394531 53.035156 L 42.847656 53.035156 C 43.667969 53.035156 44.410156 52.695312 44.941406 52.148438 Z M 46.808594 46.78125 L 45.769531 47.242188 L 45.769531 32.6875 L 46.808594 33.148438 Z M 55.226562 42.527344 C 55.226562 43.050781 54.800781 43.472656 54.28125 43.472656 L 47.636719 43.472656 L 47.636719 32.878906 C 47.636719 32.714844 47.539062 32.566406 47.390625 32.5 L 45.769531 31.78125 L 45.769531 28.589844 C 45.769531 28.070312 46.191406 27.644531 46.714844 27.644531 L 54.28125 27.644531 C 54.800781 27.644531 55.226562 28.070312 55.226562 28.589844 Z M 48.671875 28.316406 C 47.59375 28.316406 46.714844 29.195312 46.714844 30.273438 C 46.714844 31.351562 47.59375 32.226562 48.671875 32.226562 C 49.75 32.226562 50.625 31.351562 50.625 30.273438 C 50.625 29.195312 49.75 28.316406 48.671875 28.316406 Z M 48.671875 31.402344 C 48.050781 31.402344 47.542969 30.894531 47.542969 30.273438 C 47.542969 29.652344 48.050781 29.144531 48.671875 29.144531 C 49.292969 29.144531 49.800781 29.652344 49.800781 30.273438 C 49.800781 30.894531 49.292969 31.402344 48.671875 31.402344 Z M 49.828125 33.339844 L 49.828125 41.792969 C 49.828125 42.019531 49.644531 42.207031 49.414062 42.207031 C 49.1875 42.207031 49 42.019531 49 41.792969 L 49 33.339844 C 49 33.109375 49.1875 32.925781 49.414062 32.925781 C 49.644531 32.925781 49.828125 33.109375 49.828125 33.339844 Z M 52.558594 39.398438 L 52.558594 40.816406 C 52.558594 41.046875 52.371094 41.230469 52.144531 41.230469 C 51.914062 41.230469 51.730469 41.046875 51.730469 40.816406 L 51.730469 39.398438 C 51.730469 39.171875 51.914062 38.984375 52.144531 38.984375 C 52.371094 38.984375 52.558594 39.171875 52.558594 39.398438 Z M 52.558594 33.339844 L 52.558594 37.292969 C 52.558594 37.519531 52.371094 37.707031 52.144531 37.707031 C 51.914062 37.707031 51.730469 37.519531 51.730469 37.292969 L 51.730469 33.339844 C 51.730469 33.109375 51.914062 32.925781 52.144531 32.925781 C 52.371094 32.925781 52.558594 33.109375 52.558594 33.339844 Z M 33.851562 15.890625 C 36.359375 15.890625 38.402344 13.847656 38.402344 11.335938 C 38.402344 8.828125 36.359375 6.785156 33.851562 6.785156 C 31.339844 6.785156 29.296875 8.828125 29.296875 11.335938 C 29.296875 13.847656 31.339844 15.890625 33.851562 15.890625 Z M 33.851562 7.613281 C 35.90625 7.613281 37.574219 9.28125 37.574219 11.335938 C 37.574219 13.390625 35.90625 15.0625 33.851562 15.0625 C 31.796875 15.0625 30.125 13.390625 30.125 11.335938 C 30.125 9.28125 31.796875 7.613281 33.851562 7.613281 Z M 32.992188 12.449219 C 32.992188 12.222656 32.804688 12.035156 32.578125 12.035156 C 32.347656 12.035156 32.164062 12.222656 32.164062 12.449219 C 32.164062 13.164062 32.707031 13.757812 33.4375 13.925781 L 33.4375 14.078125 C 33.4375 14.308594 33.621094 14.492188 33.851562 14.492188 C 34.078125 14.492188 34.261719 14.308594 34.261719 14.078125 L 34.261719 13.925781 C 34.992188 13.757812 35.535156 13.164062 35.535156 12.449219 C 35.535156 11.738281 34.992188 11.144531 34.261719 10.976562 L 34.261719 9.617188 C 34.527344 9.734375 34.710938 9.960938 34.710938 10.222656 C 34.710938 10.453125 34.894531 10.636719 35.121094 10.636719 C 35.351562 10.636719 35.535156 10.453125 35.535156 10.222656 C 35.535156 9.511719 34.992188 8.917969 34.261719 8.75 L 34.261719 8.597656 C 34.261719 8.367188 34.078125 8.183594 33.851562 8.183594 C 33.621094 8.183594 33.4375 8.367188 33.4375 8.597656 L 33.4375 8.75 C 32.707031 8.917969 32.164062 9.511719 32.164062 10.222656 C 32.164062 10.9375 32.707031 11.53125 33.4375 11.699219 L 33.4375 13.058594 C 33.171875 12.941406 32.992188 12.714844 32.992188 12.449219 Z M 34.710938 12.449219 C 34.710938 12.714844 34.527344 12.941406 34.261719 13.058594 L 34.261719 11.839844 C 34.527344 11.960938 34.710938 12.1875 34.710938 12.449219 Z M 32.992188 10.226562 C 32.992188 9.960938 33.171875 9.734375 33.4375 9.617188 L 33.4375 10.835938 C 33.171875 10.714844 32.992188 10.488281 32.992188 10.226562 Z M 32.992188 10.226562 " clip-rule="nonzero"/></clipPath></defs><rect x="-6" width="72" fill="#ffffff" y="-6" height="72" fill-opacity="1"/><rect x="-6" width="72" fill="#ffffff" y="-6" height="72" fill-opacity="1"/><g clip-path="url(#ca972137a3)"><g clip-path="url(#c870a743fb)"><path fill="#5e17eb" d="M 3.941406 3.941406 L 3.941406 55.691406 L 55.691406 55.691406 L 55.691406 3.941406 Z M 3.941406 3.941406 " fill-opacity="1" fill-rule="nonzero"/></g></g><g fill="#5e17eb" fill-opacity="1"><g transform="translate(9.512695, 39.389999)"><g><path d="M 0.453125 0 L 0.453125 -0.34375 C 0.453125 -0.382812 0.441406 -0.414062 0.421875 -0.4375 C 0.398438 -0.457031 0.367188 -0.46875 0.328125 -0.46875 C 0.273438 -0.46875 0.234375 -0.453125 0.203125 -0.421875 C 0.179688 -0.398438 0.171875 -0.351562 0.171875 -0.28125 L 0.171875 0 L 0.09375 0 L 0.09375 -0.765625 L 0.171875 -0.765625 L 0.171875 -0.53125 C 0.171875 -0.5 0.164062 -0.476562 0.15625 -0.46875 L 0.171875 -0.46875 C 0.179688 -0.488281 0.203125 -0.503906 0.234375 -0.515625 C 0.265625 -0.535156 0.300781 -0.546875 0.34375 -0.546875 C 0.40625 -0.546875 0.453125 -0.53125 0.484375 -0.5 C 0.515625 -0.46875 0.53125 -0.414062 0.53125 -0.34375 L 0.53125 0 Z M 0.453125 0 "/></g></g></g></svg>