<svg xmlns="http://www.w3.org/2000/svg" xmlns:xlink="http://www.w3.org/1999/xlink" width="80" zoomAndPan="magnify" viewBox="0 0 60 60" height="80" preserveAspectRatio="xMidYMid meet" version="1.0"><defs><g/><clipPath id="f344e9929c"><path d="M 2.875 17 L 49 17 L 49 53 L 2.875 53 Z M 2.875 17 " clip-rule="nonzero"/></clipPath></defs><rect x="-6" width="72" fill="#ffffff" y="-6" height="72" fill-opacity="1"/><rect x="-6" width="72" fill="#ffffff" y="-6" height="72" fill-opacity="1"/><path fill="#5e17eb" d="M 31.894531 29.304688 C 31.894531 29.433594 31.847656 29.546875 31.753906 29.640625 C 31.660156 29.734375 31.546875 29.78125 31.414062 29.78125 C 31.28125 29.78125 31.171875 29.734375 31.078125 29.640625 C 30.984375 29.546875 30.9375 29.433594 30.9375 29.304688 C 30.9375 29.171875 30.984375 29.058594 31.078125 28.964844 C 31.171875 28.871094 31.28125 28.824219 31.414062 28.824219 C 31.546875 28.824219 31.660156 28.871094 31.753906 28.964844 C 31.847656 29.058594 31.894531 29.171875 31.894531 29.304688 Z M 31.894531 29.304688 " fill-opacity="1" fill-rule="nonzero"/><g clip-path="url(#f344e9929c)"><path fill="#5e17eb" d="M 47.417969 43.753906 C 41.027344 50.441406 31.175781 52.410156 22.699219 48.648438 C 12.011719 43.933594 6.875 31.632812 11.054688 20.765625 L 12.726562 27.871094 C 12.785156 28.289062 13.203125 28.585938 13.621094 28.46875 C 14.039062 28.347656 14.277344 27.988281 14.160156 27.570312 C 14.160156 27.570312 11.832031 17.71875 11.832031 17.71875 C 11.769531 17.480469 11.59375 17.242188 11.292969 17.183594 C 11.054688 17.121094 10.757812 17.183594 10.578125 17.363281 L 3.171875 24.886719 C 2.875 25.183594 2.875 25.660156 3.171875 25.960938 C 3.472656 26.257812 3.949219 26.257812 4.246094 25.960938 L 9.5625 20.585938 C 5.144531 32.765625 11.414062 46.199219 23.59375 50.617188 C 32.3125 53.785156 42.101562 51.515625 48.550781 44.828125 C 48.851562 44.527344 48.851562 44.050781 48.609375 43.753906 C 48.015625 43.273438 47.535156 43.691406 47.417969 43.753906 Z M 47.417969 43.753906 " fill-opacity="1" fill-rule="nonzero"/></g><path fill="#5e17eb" d="M 41.984375 9.300781 C 42.339844 9.480469 42.757812 9.359375 43 9.003906 C 43.175781 8.644531 43.058594 8.167969 42.699219 7.988281 C 42.699219 7.988281 40.25 6.851562 39.894531 6.734375 C 39.535156 6.554688 39.058594 6.734375 38.878906 7.09375 C 38.699219 7.449219 38.878906 7.929688 39.238281 8.105469 C 39.296875 8.046875 41.503906 9.003906 41.984375 9.300781 Z M 41.984375 9.300781 " fill-opacity="1" fill-rule="nonzero"/><path fill="#5e17eb" d="M 26.699219 7.152344 C 26.757812 7.152344 28.726562 6.792969 29.683594 6.734375 C 30.101562 6.675781 30.398438 6.316406 30.339844 5.957031 C 30.339844 5.539062 29.921875 5.242188 29.503906 5.242188 C 29.503906 5.242188 27.472656 5.480469 26.460938 5.71875 C 26.042969 5.839844 25.800781 6.195312 25.921875 6.613281 C 26.042969 6.914062 26.339844 7.152344 26.699219 7.152344 Z M 26.699219 7.152344 " fill-opacity="1" fill-rule="nonzero"/><path fill="#5e17eb" d="M 47.058594 13.0625 C 47.179688 13.183594 47.65625 13.480469 48.132812 13.0625 C 48.433594 12.765625 48.433594 12.285156 48.132812 11.988281 C 47.417969 11.273438 46.640625 10.613281 45.804688 9.957031 C 45.445312 9.71875 45.027344 9.777344 44.730469 10.078125 C 44.492188 10.4375 44.550781 10.855469 44.847656 11.152344 C 45.683594 11.75 46.402344 12.40625 47.058594 13.0625 Z M 47.058594 13.0625 " fill-opacity="1" fill-rule="nonzero"/><path fill="#5e17eb" d="M 36.070312 7.09375 C 36.070312 7.09375 36.789062 7.269531 36.96875 6.496094 C 37.085938 5.957031 36.730469 5.660156 36.429688 5.597656 C 35.414062 5.421875 34.398438 5.242188 33.386719 5.179688 C 32.96875 5.121094 32.609375 5.421875 32.550781 5.839844 C 32.488281 6.257812 32.789062 6.613281 33.207031 6.675781 C 33.148438 6.675781 35.117188 6.914062 36.070312 7.09375 Z M 36.070312 7.09375 " fill-opacity="1" fill-rule="nonzero"/><path fill="#5e17eb" d="M 20.964844 9.359375 C 21.800781 8.882812 22.699219 8.523438 23.59375 8.167969 C 23.953125 7.988281 24.191406 7.570312 24.011719 7.210938 C 23.832031 6.851562 23.414062 6.613281 23.054688 6.792969 C 22.101562 7.152344 21.144531 7.628906 20.25 8.105469 C 19.890625 8.285156 19.710938 8.765625 19.949219 9.121094 C 20.308594 9.660156 20.847656 9.421875 20.964844 9.359375 Z M 20.964844 9.359375 " fill-opacity="1" fill-rule="nonzero"/><path fill="#5e17eb" d="M 53.027344 24.050781 C 53.089844 24.40625 53.386719 24.765625 53.925781 24.644531 C 54.34375 24.585938 54.582031 24.167969 54.523438 23.75 C 54.523438 23.75 54.042969 21.71875 53.6875 20.765625 C 53.566406 20.347656 53.148438 20.167969 52.730469 20.289062 C 52.371094 20.40625 52.132812 20.824219 52.253906 21.183594 C 52.253906 21.242188 52.851562 23.09375 53.027344 24.050781 Z M 53.027344 24.050781 " fill-opacity="1" fill-rule="nonzero"/><path fill="#5e17eb" d="M 53.804688 33.242188 C 53.386719 33.125 53.027344 33.363281 52.910156 33.78125 C 52.671875 34.738281 52.371094 35.632812 52.074219 36.527344 C 51.953125 36.886719 52.132812 37.363281 52.492188 37.484375 C 52.96875 37.664062 53.328125 37.363281 53.445312 37.066406 C 53.804688 36.109375 54.105469 35.09375 54.34375 34.140625 C 54.460938 33.722656 54.222656 33.363281 53.804688 33.242188 Z M 53.804688 33.242188 " fill-opacity="1" fill-rule="nonzero"/><path fill="#5e17eb" d="M 51.535156 39.394531 C 51.179688 39.214844 50.699219 39.335938 50.523438 39.632812 C 50.042969 40.46875 49.507812 41.246094 48.910156 42.019531 C 48.671875 42.378906 48.730469 42.796875 49.027344 43.097656 C 49.328125 43.394531 49.804688 43.273438 50.105469 42.976562 C 50.761719 42.140625 51.296875 41.304688 51.835938 40.410156 C 52.015625 40.050781 51.894531 39.574219 51.535156 39.394531 Z M 51.535156 39.394531 " fill-opacity="1" fill-rule="nonzero"/><path fill="#5e17eb" d="M 55 27.394531 C 55 26.976562 54.640625 26.675781 54.222656 26.675781 C 53.804688 26.675781 53.507812 27.035156 53.507812 27.453125 C 53.507812 27.8125 53.507812 29.78125 53.445312 30.378906 C 53.386719 30.796875 53.746094 31.15625 54.105469 31.15625 C 54.105469 31.15625 54.878906 31.273438 54.941406 30.4375 C 55 29.902344 55 27.8125 55 27.394531 Z M 55 27.394531 " fill-opacity="1" fill-rule="nonzero"/><path fill="#5e17eb" d="M 50.878906 18.136719 C 51 18.375 51.476562 18.617188 51.894531 18.4375 C 52.550781 18.136719 52.253906 17.539062 52.191406 17.421875 C 51.714844 16.527344 51.179688 15.628906 50.523438 14.792969 C 50.28125 14.4375 49.746094 14.375 49.445312 14.675781 C 49.148438 14.914062 49.089844 15.332031 49.328125 15.691406 C 49.328125 15.691406 50.402344 17.300781 50.878906 18.136719 Z M 50.878906 18.136719 " fill-opacity="1" fill-rule="nonzero"/><path fill="#5e17eb" d="M 39.476562 16.464844 C 39.714844 16.464844 39.953125 16.347656 40.132812 16.109375 L 40.730469 15.09375 C 40.910156 14.734375 40.730469 14.257812 40.371094 14.078125 C 40.074219 13.898438 39.65625 14.019531 39.414062 14.316406 L 38.820312 15.332031 C 38.460938 15.808594 38.820312 16.40625 39.476562 16.464844 Z M 39.476562 16.464844 " fill-opacity="1" fill-rule="nonzero"/><path fill="#5e17eb" d="M 31.894531 14.257812 C 32.3125 14.257812 32.609375 13.957031 32.609375 13.539062 L 32.609375 12.347656 C 32.609375 11.929688 32.25 11.628906 31.894531 11.628906 C 31.535156 11.628906 31.175781 11.988281 31.175781 12.347656 L 31.175781 13.539062 C 31.175781 13.898438 31.476562 14.257812 31.894531 14.257812 Z M 31.894531 14.257812 " fill-opacity="1" fill-rule="nonzero"/><path fill="#5e17eb" d="M 23.292969 13.71875 C 22.9375 13.898438 22.816406 14.375 22.996094 14.734375 L 23.59375 15.75 C 23.710938 15.988281 24.128906 16.285156 24.609375 16.046875 C 24.964844 15.867188 25.085938 15.390625 24.90625 15.03125 C 24.90625 15.03125 24.308594 14.019531 24.308594 14.019531 C 24.011719 13.421875 23.414062 13.660156 23.292969 13.71875 Z M 23.292969 13.71875 " fill-opacity="1" fill-rule="nonzero"/><path fill="#5e17eb" d="M 17.621094 37.246094 L 18.636719 36.648438 C 18.996094 36.46875 19.113281 35.992188 18.9375 35.632812 C 18.757812 35.273438 18.277344 35.15625 17.921875 35.332031 L 16.90625 35.929688 C 16.546875 36.109375 16.429688 36.585938 16.605469 36.945312 C 16.726562 37.246094 17.085938 37.542969 17.621094 37.246094 Z M 17.621094 37.246094 " fill-opacity="1" fill-rule="nonzero"/><path fill="#5e17eb" d="M 22.519531 42.320312 C 22.28125 42.679688 22.457031 43.394531 23.175781 43.453125 C 23.414062 43.453125 23.652344 43.335938 23.832031 43.097656 L 24.429688 42.082031 C 24.667969 41.722656 24.546875 41.246094 24.191406 41.066406 C 23.832031 40.828125 23.414062 40.945312 23.175781 41.304688 C 23.117188 41.304688 22.519531 42.320312 22.519531 42.320312 Z M 22.519531 42.320312 " fill-opacity="1" fill-rule="nonzero"/><path fill="#5e17eb" d="M 30.578125 43.871094 L 30.578125 45.066406 C 30.578125 45.484375 30.878906 45.84375 31.296875 45.84375 C 31.714844 45.84375 32.011719 45.542969 32.011719 45.125 L 32.011719 43.933594 C 32.070312 42.855469 30.578125 42.796875 30.578125 43.871094 Z M 30.578125 43.871094 " fill-opacity="1" fill-rule="nonzero"/><path fill="#5e17eb" d="M 38.578125 41.363281 C 38.222656 41.542969 38.101562 42.019531 38.28125 42.378906 L 38.878906 43.394531 C 38.996094 43.632812 39.238281 43.8125 39.535156 43.8125 C 39.65625 43.8125 39.773438 43.753906 39.894531 43.691406 C 40.25 43.515625 40.371094 43.035156 40.191406 42.679688 L 39.59375 41.664062 C 39.414062 41.304688 38.9375 41.183594 38.578125 41.363281 Z M 38.578125 41.363281 " fill-opacity="1" fill-rule="nonzero"/><path fill="#5e17eb" d="M 45.984375 36.527344 L 44.96875 35.929688 C 44.609375 35.691406 44.132812 35.8125 43.953125 36.167969 C 43.773438 36.527344 43.835938 36.945312 44.191406 37.183594 C 44.191406 37.183594 44.191406 37.183594 44.253906 37.183594 L 45.265625 37.78125 C 45.625 38.019531 46.101562 37.902344 46.28125 37.542969 C 46.28125 37.542969 46.28125 37.542969 46.28125 37.484375 C 46.460938 37.183594 46.34375 36.707031 45.984375 36.527344 Z M 45.984375 36.527344 " fill-opacity="1" fill-rule="nonzero"/><path fill="#5e17eb" d="M 46.820312 28.230469 C 46.402344 28.230469 46.101562 28.527344 46.042969 28.945312 C 46.042969 29.363281 46.34375 29.722656 46.761719 29.722656 L 47.953125 29.722656 C 48.371094 29.722656 48.671875 29.363281 48.671875 29.003906 C 48.671875 28.648438 48.3125 28.289062 47.953125 28.289062 L 46.820312 28.289062 Z M 46.820312 28.230469 " fill-opacity="1" fill-rule="nonzero"/><path fill="#5e17eb" d="M 44.910156 22.136719 C 45.027344 22.136719 45.148438 22.078125 45.265625 22.019531 L 46.28125 21.421875 C 46.640625 21.242188 46.761719 20.765625 46.582031 20.40625 C 46.402344 20.046875 45.925781 19.929688 45.566406 20.109375 L 44.550781 20.707031 C 44.191406 20.882812 44.074219 21.363281 44.253906 21.71875 C 44.371094 21.960938 44.609375 22.078125 44.910156 22.136719 Z M 44.910156 22.136719 " fill-opacity="1" fill-rule="nonzero"/><path fill="#5e17eb" d="M 31.714844 29.484375 C 31.773438 29.421875 31.773438 29.304688 31.773438 29.242188 C 31.773438 29.183594 31.714844 29.066406 31.652344 29.003906 C 31.59375 28.945312 31.476562 28.945312 31.414062 28.945312 C 31.355469 28.945312 31.234375 29.003906 31.175781 29.066406 C 31.058594 29.183594 31.058594 29.421875 31.175781 29.542969 C 31.355469 29.660156 31.535156 29.660156 31.714844 29.484375 Z M 31.714844 29.484375 " fill-opacity="1" fill-rule="nonzero"/><path fill="#5e17eb" d="M 31.535156 42.199219 C 39.058594 42.199219 45.089844 36.109375 45.089844 28.648438 C 45.089844 21.183594 39.058594 15.09375 31.535156 15.09375 C 24.011719 15.09375 17.980469 21.125 17.980469 28.648438 C 17.980469 36.109375 24.070312 42.199219 31.535156 42.199219 Z M 22.996094 21.71875 C 23.292969 21.421875 23.773438 21.363281 24.070312 21.660156 L 30.699219 27.570312 C 30.878906 27.453125 31.117188 27.453125 31.355469 27.394531 C 31.59375 27.394531 31.773438 27.394531 32.011719 27.453125 L 39.117188 19.511719 C 39.355469 19.210938 39.832031 19.09375 40.191406 19.390625 C 40.492188 19.628906 40.609375 20.109375 40.3125 20.464844 C 40.3125 20.464844 33.085938 28.527344 33.085938 28.527344 C 33.207031 28.707031 33.207031 28.945312 33.265625 29.183594 C 33.265625 30.199219 32.488281 31.035156 31.476562 31.035156 C 30.460938 31.035156 29.625 30.257812 29.625 29.242188 C 29.625 29.066406 29.625 28.886719 29.683594 28.707031 L 23.054688 22.734375 C 22.757812 22.496094 22.757812 22.019531 22.996094 21.71875 Z M 22.996094 21.71875 " fill-opacity="1" fill-rule="nonzero"/><g fill="#5e17eb" fill-opacity="1"><g transform="translate(9.512695, 39.389999)"><g><path d="M 0.453125 0 L 0.453125 -0.34375 C 0.453125 -0.382812 0.441406 -0.414062 0.421875 -0.4375 C 0.398438 -0.457031 0.367188 -0.46875 0.328125 -0.46875 C 0.273438 -0.46875 0.234375 -0.453125 0.203125 -0.421875 C 0.179688 -0.398438 0.171875 -0.351562 0.171875 -0.28125 L 0.171875 0 L 0.09375 0 L 0.09375 -0.765625 L 0.171875 -0.765625 L 0.171875 -0.53125 C 0.171875 -0.5 0.164062 -0.476562 0.15625 -0.46875 L 0.171875 -0.46875 C 0.179688 -0.488281 0.203125 -0.503906 0.234375 -0.515625 C 0.265625 -0.535156 0.300781 -0.546875 0.34375 -0.546875 C 0.40625 -0.546875 0.453125 -0.53125 0.484375 -0.5 C 0.515625 -0.46875 0.53125 -0.414062 0.53125 -0.34375 L 0.53125 0 Z M 0.453125 0 "/></g></g></g></svg>