<svg xmlns="http://www.w3.org/2000/svg" xmlns:xlink="http://www.w3.org/1999/xlink" width="80" zoomAndPan="magnify" viewBox="0 0 60 60" height="80" preserveAspectRatio="xMidYMid meet" version="1.0"><defs><g/><clipPath id="422b567284"><path d="M 4.636719 13.34375 L 57.136719 13.34375 L 57.136719 41.84375 L 4.636719 41.84375 Z M 4.636719 13.34375 " clip-rule="nonzero"/></clipPath></defs><rect x="-6" width="72" fill="#ffffff" y="-6" height="72" fill-opacity="1"/><rect x="-6" width="72" fill="#ffffff" y="-6" height="72" fill-opacity="1"/><g clip-path="url(#422b567284)"><path fill="#5e17eb" d="M 22.414062 42 C 22.09375 42 21.945312 41.785156 22.085938 41.523438 C 22.222656 41.261719 22.59375 41.046875 22.914062 41.046875 L 25.222656 41.046875 C 25.539062 41.046875 25.6875 41.261719 25.546875 41.523438 C 25.410156 41.785156 25.039062 42 24.722656 42 Z M 17.796875 42 C 17.476562 42 17.332031 41.785156 17.46875 41.523438 C 17.605469 41.261719 17.976562 41.046875 18.296875 41.046875 L 20.605469 41.046875 C 20.921875 41.046875 21.070312 41.261719 20.929688 41.523438 C 20.792969 41.785156 20.421875 42 20.105469 42 Z M 13.179688 42 C 12.859375 42 12.714844 41.785156 12.851562 41.523438 C 12.988281 41.261719 13.359375 41.046875 13.679688 41.046875 L 15.988281 41.046875 C 16.304688 41.046875 16.453125 41.261719 16.3125 41.523438 C 16.175781 41.785156 15.804688 42 15.488281 42 Z M 27.027344 42 C 26.710938 42 26.5625 41.785156 26.703125 41.523438 C 26.839844 41.261719 27.210938 41.046875 27.53125 41.046875 L 29.835938 41.046875 C 30.15625 41.046875 30.304688 41.261719 30.164062 41.523438 C 30.027344 41.785156 29.65625 42 29.335938 42 Z M 31.832031 41.878906 C 31.488281 41.9375 31.265625 41.773438 31.328125 41.519531 C 31.390625 41.261719 31.722656 41.007812 32.0625 40.949219 C 32.804688 40.820312 33.5625 40.574219 34.292969 40.226562 C 34.628906 40.066406 34.972656 40.105469 35.054688 40.316406 C 35.140625 40.523438 34.9375 40.824219 34.601562 40.984375 C 33.695312 41.414062 32.753906 41.71875 31.832031 41.878906 Z M 37.085938 39.375 C 36.816406 39.609375 36.417969 39.699219 36.203125 39.574219 C 35.984375 39.453125 36.027344 39.164062 36.296875 38.929688 C 36.878906 38.429688 37.355469 37.878906 37.695312 37.300781 C 37.851562 37.039062 38.226562 36.835938 38.539062 36.851562 C 38.851562 36.863281 38.976562 37.089844 38.820312 37.351562 C 38.402344 38.066406 37.808594 38.753906 37.085938 39.375 Z M 39.5 35.246094 C 39.492188 35.492188 39.203125 35.769531 38.859375 35.867188 C 38.511719 35.96875 38.234375 35.847656 38.242188 35.605469 C 38.261719 35.078125 38.117188 34.601562 37.820312 34.210938 C 37.679688 34.03125 37.828125 33.730469 38.148438 33.539062 C 38.46875 33.347656 38.835938 33.335938 38.972656 33.515625 C 39.34375 34.003906 39.523438 34.59375 39.5 35.246094 Z M 37.355469 32.433594 C 37.613281 32.519531 37.636719 32.789062 37.402344 33.039062 C 37.171875 33.289062 36.773438 33.421875 36.515625 33.339844 C 36.105469 33.203125 35.632812 33.136719 35.117188 33.132812 L 34.5 33.132812 C 34.183594 33.132812 34.035156 32.921875 34.175781 32.65625 C 34.3125 32.394531 34.683594 32.179688 35 32.179688 L 35.617188 32.179688 C 36.261719 32.183594 36.84375 32.269531 37.355469 32.433594 Z M 32.710938 32.179688 C 33.023438 32.1875 33.160156 32.40625 33.011719 32.667969 C 32.867188 32.933594 32.492188 33.140625 32.175781 33.132812 C 31.320312 33.113281 30.574219 32.9375 29.976562 32.617188 C 29.753906 32.5 29.792969 32.214844 30.058594 31.980469 C 30.324219 31.742188 30.722656 31.648438 30.945312 31.769531 C 31.421875 32.023438 32.019531 32.164062 32.710938 32.179688 Z M 29.921875 30.699219 C 30.011719 30.90625 29.8125 31.203125 29.476562 31.367188 C 29.140625 31.53125 28.796875 31.492188 28.707031 31.289062 C 28.46875 30.730469 28.429688 30.085938 28.601562 29.390625 C 28.664062 29.136719 28.992188 28.878906 29.335938 28.820312 C 29.675781 28.761719 29.902344 28.921875 29.839844 29.179688 C 29.703125 29.734375 29.734375 30.25 29.921875 30.699219 Z M 30.730469 27.464844 C 30.527344 27.722656 30.132812 27.882812 29.851562 27.828125 C 29.570312 27.769531 29.507812 27.515625 29.710938 27.257812 C 30.261719 26.566406 30.972656 25.914062 31.789062 25.355469 C 32.09375 25.148438 32.476562 25.109375 32.644531 25.269531 C 32.8125 25.429688 32.699219 25.730469 32.398438 25.9375 C 31.738281 26.386719 31.171875 26.90625 30.730469 27.464844 Z M 34.539062 24.855469 C 34.195312 24.976562 33.894531 24.882812 33.871094 24.648438 C 33.847656 24.414062 34.109375 24.128906 34.457031 24.007812 C 35.386719 23.6875 36.316406 23.503906 37.199219 23.476562 C 37.523438 23.46875 37.683594 23.675781 37.554688 23.9375 C 37.429688 24.199219 37.0625 24.421875 36.738281 24.429688 C 36.03125 24.449219 35.285156 24.597656 34.539062 24.855469 Z M 39.058594 24.429688 C 38.742188 24.429688 38.59375 24.214844 38.734375 23.953125 C 38.871094 23.6875 39.242188 23.476562 39.558594 23.476562 L 41.867188 23.476562 C 42.1875 23.476562 42.332031 23.6875 42.195312 23.953125 C 42.058594 24.214844 41.6875 24.429688 41.367188 24.429688 Z M 43.878906 24.113281 C 43.535156 24.179688 43.300781 24.03125 43.351562 23.777344 C 43.402344 23.523438 43.722656 23.261719 44.066406 23.191406 L 45.53125 22.902344 C 45.875 22.832031 46.113281 22.984375 46.0625 23.238281 C 46.011719 23.492188 45.691406 23.753906 45.347656 23.820312 Z M 10.980469 24.980469 C 14.488281 24.980469 17.328125 27.824219 17.328125 31.328125 C 17.328125 33.6875 16.183594 36.09375 14.285156 38.4375 C 13.625 39.246094 12.921875 39.992188 12.21875 40.65625 C 11.972656 40.890625 11.742188 41.097656 11.535156 41.273438 C 11.464844 41.335938 11.398438 41.390625 11.34375 41.4375 C 11.308594 41.464844 11.285156 41.484375 11.269531 41.496094 L 10.980469 41.726562 L 10.691406 41.496094 C 10.679688 41.484375 10.65625 41.464844 10.621094 41.4375 C 10.566406 41.390625 10.5 41.335938 10.425781 41.273438 C 10.222656 41.097656 9.992188 40.890625 9.746094 40.65625 C 9.042969 39.992188 8.335938 39.246094 7.679688 38.4375 C 5.78125 36.09375 4.632812 33.6875 4.632812 31.328125 C 4.632812 27.824219 7.476562 24.980469 10.980469 24.980469 Z M 11.019531 34.253906 C 12.609375 34.253906 13.90625 32.960938 13.90625 31.367188 C 13.90625 29.777344 12.613281 28.484375 11.019531 28.484375 C 9.429688 28.484375 8.132812 29.777344 8.132812 31.367188 C 8.132812 32.960938 9.429688 34.253906 11.019531 34.253906 Z M 57.015625 17.472656 C 57.015625 17.84375 56.75 18.132812 56.425781 18.117188 L 56.28125 18.109375 C 56.28125 18.109375 56.28125 18.109375 56.28125 18.113281 C 56.359375 18.347656 56.402344 18.605469 56.402344 18.871094 L 56.402344 19.664062 C 56.402344 20.433594 56.214844 21.09375 55.789062 21.394531 L 55.789062 22.265625 C 55.789062 22.699219 55.480469 23.039062 55.097656 23.019531 L 54.464844 22.988281 C 54.082031 22.96875 53.769531 22.601562 53.769531 22.164062 L 53.769531 21.507812 L 48.144531 21.226562 L 48.144531 21.886719 C 48.144531 22.324219 47.832031 22.660156 47.453125 22.640625 L 46.816406 22.609375 C 46.433594 22.589844 46.125 22.222656 46.125 21.785156 L 46.125 20.917969 C 45.699219 20.574219 45.511719 19.898438 45.511719 19.125 L 45.511719 18.335938 C 45.511719 18.066406 45.554688 17.816406 45.632812 17.585938 C 45.632812 17.585938 45.632812 17.585938 45.632812 17.582031 L 45.488281 17.578125 C 45.160156 17.558594 44.898438 17.246094 44.898438 16.875 C 44.898438 16.5 45.160156 16.210938 45.488281 16.226562 L 46.066406 16.257812 C 46.085938 16.257812 46.105469 16.261719 46.125 16.265625 L 46.875 14.382812 C 47.113281 13.785156 47.6875 13.359375 48.207031 13.382812 L 49.035156 13.425781 L 52.875 13.613281 L 53.703125 13.65625 C 54.21875 13.679688 54.804688 14.175781 55.035156 14.785156 L 55.789062 16.742188 C 55.808594 16.742188 55.828125 16.738281 55.847656 16.738281 L 56.425781 16.769531 C 56.75 16.785156 57.015625 17.097656 57.015625 17.472656 Z M 57.015625 17.472656 " fill-opacity="1" fill-rule="evenodd"/></g><g fill="#5e17eb" fill-opacity="1"><g transform="translate(9.512695, 39.389999)"><g><path d="M 0.453125 0 L 0.453125 -0.34375 C 0.453125 -0.382812 0.441406 -0.414062 0.421875 -0.4375 C 0.398438 -0.457031 0.367188 -0.46875 0.328125 -0.46875 C 0.273438 -0.46875 0.234375 -0.453125 0.203125 -0.421875 C 0.179688 -0.398438 0.171875 -0.351562 0.171875 -0.28125 L 0.171875 0 L 0.09375 0 L 0.09375 -0.765625 L 0.171875 -0.765625 L 0.171875 -0.53125 C 0.171875 -0.5 0.164062 -0.476562 0.15625 -0.46875 L 0.171875 -0.46875 C 0.179688 -0.488281 0.203125 -0.503906 0.234375 -0.515625 C 0.265625 -0.535156 0.300781 -0.546875 0.34375 -0.546875 C 0.40625 -0.546875 0.453125 -0.53125 0.484375 -0.5 C 0.515625 -0.46875 0.53125 -0.414062 0.53125 -0.34375 L 0.53125 0 Z M 0.453125 0 "/></g></g></g></svg>