<svg xmlns="http://www.w3.org/2000/svg" xmlns:xlink="http://www.w3.org/1999/xlink" width="80" zoomAndPan="magnify" viewBox="0 0 60 60" height="80" preserveAspectRatio="xMidYMid meet" version="1.0"><defs><g/><clipPath id="beb665f479"><path d="M 20 40 L 56.09375 40 L 56.09375 42 L 20 42 Z M 20 40 " clip-rule="nonzero"/></clipPath><clipPath id="d020893666"><path d="M 9 6.003906 L 20 6.003906 L 20 18 L 9 18 Z M 9 6.003906 " clip-rule="nonzero"/></clipPath><clipPath id="52bfb407c9"><path d="M 3.59375 8 L 24 8 L 24 54 L 3.59375 54 Z M 3.59375 8 " clip-rule="nonzero"/></clipPath></defs><rect x="-6" width="72" fill="#ffffff" y="-6" height="72" fill-opacity="1"/><rect x="-6" width="72" fill="#ffffff" y="-6" height="72" fill-opacity="1"/><g clip-path="url(#beb665f479)"><path fill="#5e17eb" d="M 20.703125 40.472656 L 56.390625 40.472656 L 56.390625 41.238281 L 20.703125 41.238281 Z M 20.703125 40.472656 " fill-opacity="1" fill-rule="nonzero"/></g><path fill="#5e17eb" d="M 50.921875 24.300781 L 50.941406 24.355469 L 50.976562 24.453125 L 54.566406 24.453125 C 55.035156 24.453125 55.417969 24.070312 55.417969 23.597656 L 55.417969 22.746094 C 55.417969 22.273438 55.035156 21.890625 54.566406 21.890625 L 52.003906 21.890625 C 51.53125 21.890625 51.148438 22.273438 51.148438 22.746094 L 51.148438 23.171875 L 50.496094 23.171875 C 50.648438 23.582031 50.773438 23.914062 50.847656 24.109375 Z M 50.921875 24.300781 " fill-opacity="1" fill-rule="nonzero"/><path fill="#5e17eb" d="M 38.265625 18.605469 L 36.273438 18.605469 C 36 18.605469 35.777344 18.828125 35.777344 19.101562 C 35.777344 19.375 36 19.601562 36.273438 19.601562 L 38.265625 19.601562 C 38.542969 19.601562 38.765625 19.375 38.765625 19.101562 C 38.765625 18.828125 38.542969 18.605469 38.265625 18.605469 Z M 38.265625 18.605469 " fill-opacity="1" fill-rule="nonzero"/><path fill="#5e17eb" d="M 24.980469 35.222656 C 24.898438 36.636719 23.726562 37.746094 22.308594 37.746094 C 22.253906 37.746094 22.195312 37.742188 22.140625 37.738281 C 22.058594 37.734375 21.980469 37.726562 21.898438 37.710938 L 21.898438 39.296875 C 21.898438 39.769531 22.28125 40.152344 22.753906 40.152344 L 26.167969 40.152344 C 26.640625 40.152344 27.023438 39.769531 27.023438 39.296875 L 27.023438 37.589844 C 32.117188 37.589844 43.40625 37.589844 48.039062 37.589844 L 48.039062 39.355469 C 48.039062 39.792969 48.394531 40.152344 48.835938 40.152344 L 52.027344 40.152344 C 52.46875 40.152344 52.824219 39.792969 52.824219 39.355469 L 52.824219 36.167969 C 52.863281 36.167969 52.898438 36.167969 52.929688 36.167969 C 54.351562 36.167969 54.351562 33.953125 54.351562 33.953125 L 25.042969 33.953125 C 25.027344 34.371094 25.007812 34.792969 24.980469 35.222656 Z M 24.980469 35.222656 " fill-opacity="1" fill-rule="nonzero"/><path fill="#5e17eb" d="M 32.359375 33.417969 L 32.359375 29.148438 L 33.640625 29.148438 L 33.640625 33.417969 L 34.496094 33.417969 L 34.496094 29.148438 L 35.777344 29.148438 L 35.777344 33.417969 L 36.632812 33.417969 L 36.632812 29.148438 L 37.910156 29.148438 L 37.910156 33.417969 L 38.765625 33.417969 L 38.765625 29.148438 L 40.046875 29.148438 L 40.046875 33.417969 L 40.902344 33.417969 L 40.902344 29.148438 L 42.179688 29.148438 L 42.179688 33.417969 L 53.875 33.417969 C 53.875 33.417969 53.875 30.667969 53.875 28.296875 C 53.875 26.433594 51.734375 25.15625 50.8125 24.695312 L 50.695312 24.386719 C 50.695312 24.378906 48.480469 18.527344 48.171875 17.597656 C 47.980469 17.003906 47.488281 16.675781 46.910156 16.535156 C 46.324219 16.382812 45.609375 16.347656 44.730469 16.273438 C 42.820312 16.113281 39.34375 15.957031 37.269531 15.957031 C 35.199219 15.957031 31.722656 16.113281 29.8125 16.273438 C 28.933594 16.347656 28.21875 16.382812 27.632812 16.535156 C 27.054688 16.675781 26.558594 17.003906 26.371094 17.597656 C 26.140625 18.292969 24.851562 21.722656 24.207031 23.421875 C 24.519531 24.546875 24.746094 25.816406 24.890625 27.238281 C 25.152344 27.125 25.441406 27.0625 25.742188 27.0625 C 26.921875 27.0625 27.878906 28.015625 27.878906 29.195312 C 27.878906 30.375 26.921875 31.332031 25.742188 31.332031 C 25.515625 31.332031 25.300781 31.296875 25.09375 31.230469 C 25.09375 31.316406 25.097656 31.402344 25.097656 31.488281 C 25.097656 32.109375 25.085938 32.753906 25.0625 33.417969 Z M 48.800781 31.332031 C 47.621094 31.332031 46.664062 30.375 46.664062 29.195312 C 46.664062 28.019531 47.621094 27.0625 48.800781 27.0625 C 49.980469 27.0625 50.933594 28.019531 50.933594 29.195312 C 50.933594 30.375 49.980469 31.332031 48.800781 31.332031 Z M 26.980469 19.054688 C 27.105469 18.699219 27.3125 18.546875 27.796875 18.40625 C 28.273438 18.28125 28.980469 18.238281 29.867188 18.164062 C 31.75 18.007812 35.230469 17.847656 37.269531 17.847656 C 39.3125 17.847656 42.792969 18.007812 44.675781 18.164062 C 45.5625 18.238281 46.269531 18.28125 46.746094 18.40625 C 47.230469 18.546875 47.4375 18.699219 47.5625 19.054688 C 47.832031 19.859375 49.414062 22.808594 49.933594 24.179688 L 24.609375 24.179688 C 25.125 22.808594 26.710938 19.859375 26.980469 19.054688 Z M 26.980469 19.054688 " fill-opacity="1" fill-rule="nonzero"/><path fill="#5e17eb" d="M 27.402344 29.199219 C 27.402344 28.28125 26.660156 27.535156 25.742188 27.535156 C 25.453125 27.535156 25.179688 27.613281 24.941406 27.742188 C 25.023438 28.671875 25.074219 29.667969 25.089844 30.722656 C 25.289062 30.808594 25.511719 30.855469 25.742188 30.855469 C 26.660156 30.855469 27.402344 30.113281 27.402344 29.199219 Z M 27.402344 29.199219 " fill-opacity="1" fill-rule="nonzero"/><path fill="#5e17eb" d="M 50.460938 29.195312 C 50.460938 29.417969 50.417969 29.628906 50.335938 29.832031 C 50.25 30.035156 50.128906 30.214844 49.976562 30.371094 C 49.820312 30.527344 49.640625 30.644531 49.4375 30.730469 C 49.234375 30.816406 49.019531 30.855469 48.800781 30.855469 C 48.582031 30.855469 48.371094 30.816406 48.164062 30.730469 C 47.960938 30.644531 47.78125 30.527344 47.628906 30.371094 C 47.472656 30.214844 47.351562 30.035156 47.265625 29.832031 C 47.183594 29.628906 47.140625 29.417969 47.140625 29.195312 C 47.140625 28.976562 47.183594 28.765625 47.265625 28.5625 C 47.351562 28.359375 47.472656 28.179688 47.628906 28.023438 C 47.78125 27.867188 47.960938 27.746094 48.164062 27.664062 C 48.371094 27.578125 48.582031 27.535156 48.800781 27.535156 C 49.019531 27.535156 49.234375 27.578125 49.4375 27.664062 C 49.640625 27.746094 49.820312 27.867188 49.976562 28.023438 C 50.128906 28.179688 50.25 28.359375 50.335938 28.5625 C 50.417969 28.765625 50.460938 28.976562 50.460938 29.195312 Z M 50.460938 29.195312 " fill-opacity="1" fill-rule="nonzero"/><g clip-path="url(#d020893666)"><path fill="#5e17eb" d="M 11.628906 8.902344 C 11.695312 9.019531 11.75 9.144531 11.789062 9.273438 C 12.503906 9.09375 13.402344 8.988281 14.382812 8.988281 C 16.707031 8.988281 18.589844 9.585938 18.589844 10.328125 C 18.589844 10.4375 18.550781 10.542969 18.46875 10.644531 C 18.019531 10.058594 16.359375 9.625 14.382812 9.625 C 13.441406 9.625 12.570312 9.722656 11.871094 9.890625 C 11.851562 10.539062 11.503906 11.164062 10.894531 11.503906 C 10.644531 11.648438 10.410156 11.785156 10.1875 11.917969 C 10.117188 12.230469 10.078125 12.554688 10.078125 12.886719 C 10.078125 15.027344 11.640625 16.800781 13.683594 17.132812 C 13.910156 17.171875 14.144531 17.191406 14.382812 17.191406 C 14.621094 17.191406 14.851562 17.171875 15.082031 17.132812 C 17.125 16.800781 18.6875 15.027344 18.6875 12.886719 C 18.6875 12.347656 18.585938 11.832031 18.40625 11.359375 C 18.507812 11.25 18.570312 11.140625 18.585938 11.023438 C 19.085938 11.039062 19.472656 10.960938 19.644531 10.691406 C 20.214844 9.792969 18.75 6.035156 14.382812 6.035156 C 12.269531 6.035156 10.835938 6.914062 9.984375 7.925781 C 10.667969 7.933594 11.296875 8.304688 11.628906 8.902344 Z M 11.628906 8.902344 " fill-opacity="1" fill-rule="nonzero"/></g><g clip-path="url(#52bfb407c9)"><path fill="#5e17eb" d="M 13.9375 34.324219 L 14.824219 34.324219 L 14.824219 51.59375 C 14.824219 52.902344 15.886719 53.960938 17.191406 53.960938 C 18.496094 53.960938 19.554688 52.902344 19.554688 51.59375 L 19.554688 22.902344 C 19.667969 23.136719 19.785156 23.402344 19.898438 23.714844 C 20.4375 25.210938 20.890625 27.660156 20.886719 31.488281 C 20.886719 32.546875 20.855469 33.703125 20.78125 34.976562 C 20.730469 35.820312 21.375 36.542969 22.21875 36.59375 C 22.25 36.597656 22.28125 36.597656 22.308594 36.597656 C 23.113281 36.597656 23.789062 35.96875 23.835938 35.15625 C 23.914062 33.828125 23.949219 32.609375 23.949219 31.488281 C 23.941406 25.714844 23.019531 22.519531 21.761719 20.597656 C 21.132812 19.644531 20.398438 19.03125 19.71875 18.691406 C 19.0625 18.363281 18.488281 18.289062 18.144531 18.285156 C 18.121094 18.285156 18.101562 18.28125 18.078125 18.28125 L 16.4375 18.28125 C 16.695312 19.761719 17.324219 24.085938 15.992188 24.945312 C 15.769531 25.089844 15.582031 25.210938 15.410156 25.316406 L 14.957031 20.757812 C 14.769531 20.808594 14.578125 20.835938 14.382812 20.835938 C 14.1875 20.835938 13.996094 20.808594 13.808594 20.757812 L 13.351562 25.316406 C 13.183594 25.210938 12.992188 25.089844 12.769531 24.945312 C 11.441406 24.085938 12.066406 19.761719 12.328125 18.28125 L 10.964844 18.28125 C 10.511719 18.125 9.425781 17.71875 8.46875 17.128906 C 7.902344 16.785156 7.390625 16.378906 7.078125 16 C 6.757812 15.609375 6.65625 15.320312 6.65625 15.046875 C 6.65625 14.777344 6.75 14.351562 7.34375 13.664062 C 7.929688 12.988281 9.003906 12.125 10.707031 11.171875 C 11.445312 10.757812 11.710938 9.824219 11.296875 9.085938 C 10.882812 8.351562 9.949219 8.089844 9.210938 8.5 C 7.308594 9.570312 5.964844 10.589844 5.035156 11.652344 C 4.109375 12.703125 3.589844 13.875 3.59375 15.046875 C 3.59375 16.300781 4.171875 17.347656 4.859375 18.109375 C 5.898438 19.265625 7.230469 19.996094 8.316406 20.507812 C 8.640625 20.660156 8.941406 20.785156 9.207031 20.894531 L 9.207031 51.59375 C 9.207031 52.902344 10.265625 53.960938 11.574219 53.960938 C 12.582031 53.960938 13.445312 53.324219 13.78125 52.433594 C 13.882812 52.171875 13.9375 51.890625 13.9375 51.59375 Z M 13.9375 34.324219 " fill-opacity="1" fill-rule="nonzero"/></g><path fill="#5e17eb" d="M 15.1875 19.800781 L 14.917969 18.367188 L 13.847656 18.367188 L 13.578125 19.800781 L 13.730469 20.125 C 13.9375 20.214844 14.160156 20.261719 14.382812 20.261719 C 14.605469 20.261719 14.828125 20.214844 15.035156 20.125 Z M 15.1875 19.800781 " fill-opacity="1" fill-rule="nonzero"/><g fill="#5e17eb" fill-opacity="1"><g transform="translate(9.512695, 39.389999)"><g><path d="M 0.453125 0 L 0.453125 -0.34375 C 0.453125 -0.382812 0.441406 -0.414062 0.421875 -0.4375 C 0.398438 -0.457031 0.367188 -0.46875 0.328125 -0.46875 C 0.273438 -0.46875 0.234375 -0.453125 0.203125 -0.421875 C 0.179688 -0.398438 0.171875 -0.351562 0.171875 -0.28125 L 0.171875 0 L 0.09375 0 L 0.09375 -0.765625 L 0.171875 -0.765625 L 0.171875 -0.53125 C 0.171875 -0.5 0.164062 -0.476562 0.15625 -0.46875 L 0.171875 -0.46875 C 0.179688 -0.488281 0.203125 -0.503906 0.234375 -0.515625 C 0.265625 -0.535156 0.300781 -0.546875 0.34375 -0.546875 C 0.40625 -0.546875 0.453125 -0.53125 0.484375 -0.5 C 0.515625 -0.46875 0.53125 -0.414062 0.53125 -0.34375 L 0.53125 0 Z M 0.453125 0 "/></g></g></g></svg>