<svg xmlns="http://www.w3.org/2000/svg" xmlns:xlink="http://www.w3.org/1999/xlink" width="80" zoomAndPan="magnify" viewBox="0 0 60 60" height="80" preserveAspectRatio="xMidYMid meet" version="1.0"><defs><g/><clipPath id="ce4a5b55e0"><path d="M 8.476562 19 L 44 19 L 44 46 L 8.476562 46 Z M 8.476562 19 " clip-rule="nonzero"/></clipPath><clipPath id="d24e334f32"><path d="M 45 21 L 47.476562 21 L 47.476562 25 L 45 25 Z M 45 21 " clip-rule="nonzero"/></clipPath><clipPath id="042d74eb89"><path d="M 45 31 L 47.476562 31 L 47.476562 35 L 45 35 Z M 45 31 " clip-rule="nonzero"/></clipPath><clipPath id="4442ab51af"><path d="M 46 26 L 47.476562 26 L 47.476562 30 L 46 30 Z M 46 26 " clip-rule="nonzero"/></clipPath></defs><rect x="-6" width="72" fill="#ffffff" y="-6" height="72" fill-opacity="1"/><rect x="-6" width="72" fill="#ffffff" y="-6" height="72" fill-opacity="1"/><path fill="#5e17eb" d="M 30.320312 28.261719 C 30.320312 28.359375 30.285156 28.445312 30.214844 28.515625 C 30.144531 28.585938 30.058594 28.621094 29.960938 28.621094 C 29.859375 28.621094 29.777344 28.585938 29.707031 28.515625 C 29.636719 28.445312 29.601562 28.359375 29.601562 28.261719 C 29.601562 28.164062 29.636719 28.078125 29.707031 28.007812 C 29.777344 27.9375 29.859375 27.902344 29.960938 27.902344 C 30.058594 27.902344 30.144531 27.9375 30.214844 28.007812 C 30.285156 28.078125 30.320312 28.164062 30.320312 28.261719 Z M 30.320312 28.261719 " fill-opacity="1" fill-rule="nonzero"/><g clip-path="url(#ce4a5b55e0)"><path fill="#5e17eb" d="M 42.003906 39.136719 C 37.195312 44.171875 29.78125 45.65625 23.398438 42.824219 C 15.355469 39.273438 11.488281 30.015625 14.636719 21.835938 L 15.894531 27.183594 C 15.9375 27.496094 16.253906 27.722656 16.566406 27.632812 C 16.882812 27.542969 17.0625 27.273438 16.972656 26.957031 C 16.972656 26.957031 15.21875 19.542969 15.21875 19.542969 C 15.175781 19.363281 15.039062 19.183594 14.816406 19.136719 C 14.636719 19.09375 14.410156 19.136719 14.277344 19.273438 L 8.703125 24.9375 C 8.476562 25.160156 8.476562 25.519531 8.703125 25.746094 C 8.925781 25.96875 9.285156 25.96875 9.511719 25.746094 L 13.511719 21.699219 C 10.1875 30.867188 14.90625 40.980469 24.074219 44.304688 C 30.632812 46.6875 38.003906 44.980469 42.859375 39.945312 C 43.082031 39.722656 43.082031 39.363281 42.902344 39.136719 C 42.453125 38.777344 42.09375 39.09375 42.003906 39.136719 Z M 42.003906 39.136719 " fill-opacity="1" fill-rule="nonzero"/></g><path fill="#5e17eb" d="M 37.914062 13.207031 C 38.183594 13.339844 38.5 13.25 38.679688 12.980469 C 38.8125 12.710938 38.722656 12.351562 38.453125 12.21875 C 38.453125 12.21875 36.613281 11.363281 36.34375 11.273438 C 36.074219 11.140625 35.710938 11.273438 35.578125 11.542969 C 35.441406 11.8125 35.578125 12.171875 35.847656 12.308594 C 35.890625 12.261719 37.554688 12.980469 37.914062 13.207031 Z M 37.914062 13.207031 " fill-opacity="1" fill-rule="nonzero"/><path fill="#5e17eb" d="M 26.410156 11.589844 C 26.453125 11.589844 27.9375 11.320312 28.65625 11.273438 C 28.972656 11.230469 29.195312 10.960938 29.152344 10.691406 C 29.152344 10.375 28.835938 10.148438 28.523438 10.148438 C 28.523438 10.148438 26.992188 10.328125 26.230469 10.511719 C 25.914062 10.601562 25.734375 10.871094 25.824219 11.183594 C 25.914062 11.410156 26.140625 11.589844 26.410156 11.589844 Z M 26.410156 11.589844 " fill-opacity="1" fill-rule="nonzero"/><path fill="#5e17eb" d="M 41.734375 16.039062 C 41.824219 16.128906 42.183594 16.351562 42.542969 16.039062 C 42.769531 15.8125 42.769531 15.453125 42.542969 15.230469 C 42.003906 14.6875 41.421875 14.195312 40.792969 13.699219 C 40.523438 13.519531 40.207031 13.566406 39.980469 13.789062 C 39.800781 14.058594 39.847656 14.375 40.070312 14.597656 C 40.703125 15.050781 41.242188 15.542969 41.734375 16.039062 Z M 41.734375 16.039062 " fill-opacity="1" fill-rule="nonzero"/><path fill="#5e17eb" d="M 33.464844 11.542969 C 33.464844 11.542969 34.003906 11.679688 34.140625 11.09375 C 34.230469 10.691406 33.960938 10.464844 33.734375 10.417969 C 32.972656 10.285156 32.207031 10.148438 31.441406 10.105469 C 31.128906 10.058594 30.859375 10.285156 30.8125 10.601562 C 30.769531 10.914062 30.992188 11.183594 31.308594 11.230469 C 31.261719 11.230469 32.746094 11.410156 33.464844 11.542969 Z M 33.464844 11.542969 " fill-opacity="1" fill-rule="nonzero"/><path fill="#5e17eb" d="M 22.09375 13.25 C 22.722656 12.890625 23.398438 12.621094 24.074219 12.351562 C 24.34375 12.21875 24.523438 11.902344 24.386719 11.632812 C 24.253906 11.363281 23.9375 11.183594 23.667969 11.320312 C 22.949219 11.589844 22.230469 11.949219 21.554688 12.308594 C 21.285156 12.441406 21.152344 12.800781 21.332031 13.070312 C 21.601562 13.476562 22.003906 13.296875 22.09375 13.25 Z M 22.09375 13.25 " fill-opacity="1" fill-rule="nonzero"/><g clip-path="url(#d24e334f32)"><path fill="#5e17eb" d="M 46.230469 24.308594 C 46.273438 24.578125 46.5 24.847656 46.902344 24.757812 C 47.21875 24.710938 47.398438 24.398438 47.351562 24.082031 C 47.351562 24.082031 46.992188 22.554688 46.722656 21.835938 C 46.632812 21.519531 46.320312 21.386719 46.003906 21.476562 C 45.734375 21.566406 45.554688 21.878906 45.644531 22.148438 C 45.644531 22.195312 46.09375 23.585938 46.230469 24.308594 Z M 46.230469 24.308594 " fill-opacity="1" fill-rule="nonzero"/></g><g clip-path="url(#042d74eb89)"><path fill="#5e17eb" d="M 46.8125 31.226562 C 46.5 31.136719 46.230469 31.316406 46.140625 31.632812 C 45.960938 32.351562 45.734375 33.027344 45.511719 33.699219 C 45.421875 33.96875 45.554688 34.328125 45.824219 34.417969 C 46.183594 34.554688 46.453125 34.328125 46.542969 34.105469 C 46.8125 33.386719 47.039062 32.621094 47.21875 31.902344 C 47.308594 31.585938 47.128906 31.316406 46.8125 31.226562 Z M 46.8125 31.226562 " fill-opacity="1" fill-rule="nonzero"/></g><path fill="#5e17eb" d="M 45.105469 35.855469 C 44.835938 35.722656 44.476562 35.8125 44.339844 36.035156 C 43.980469 36.664062 43.578125 37.25 43.128906 37.835938 C 42.949219 38.105469 42.992188 38.417969 43.21875 38.644531 C 43.441406 38.867188 43.800781 38.777344 44.027344 38.554688 C 44.519531 37.925781 44.925781 37.296875 45.332031 36.621094 C 45.464844 36.351562 45.375 35.992188 45.105469 35.855469 Z M 45.105469 35.855469 " fill-opacity="1" fill-rule="nonzero"/><g clip-path="url(#4442ab51af)"><path fill="#5e17eb" d="M 47.710938 26.824219 C 47.710938 26.507812 47.441406 26.285156 47.128906 26.285156 C 46.8125 26.285156 46.589844 26.554688 46.589844 26.867188 C 46.589844 27.136719 46.589844 28.621094 46.542969 29.070312 C 46.5 29.386719 46.769531 29.65625 47.039062 29.65625 C 47.039062 29.65625 47.621094 29.746094 47.667969 29.117188 C 47.710938 28.710938 47.710938 27.136719 47.710938 26.824219 Z M 47.710938 26.824219 " fill-opacity="1" fill-rule="nonzero"/></g><path fill="#5e17eb" d="M 44.609375 19.859375 C 44.699219 20.039062 45.0625 20.21875 45.375 20.082031 C 45.871094 19.859375 45.644531 19.410156 45.601562 19.320312 C 45.242188 18.644531 44.835938 17.96875 44.339844 17.339844 C 44.160156 17.070312 43.757812 17.027344 43.53125 17.25 C 43.308594 17.429688 43.261719 17.746094 43.441406 18.015625 C 43.441406 18.015625 44.25 19.230469 44.609375 19.859375 Z M 44.609375 19.859375 " fill-opacity="1" fill-rule="nonzero"/><path fill="#5e17eb" d="M 36.027344 18.597656 C 36.207031 18.597656 36.386719 18.507812 36.523438 18.328125 L 36.972656 17.566406 C 37.105469 17.296875 36.972656 16.9375 36.703125 16.800781 C 36.476562 16.667969 36.164062 16.757812 35.980469 16.980469 L 35.53125 17.746094 C 35.261719 18.105469 35.53125 18.554688 36.027344 18.597656 Z M 36.027344 18.597656 " fill-opacity="1" fill-rule="nonzero"/><path fill="#5e17eb" d="M 30.320312 16.9375 C 30.632812 16.9375 30.859375 16.710938 30.859375 16.398438 L 30.859375 15.5 C 30.859375 15.183594 30.589844 14.960938 30.320312 14.960938 C 30.050781 14.960938 29.78125 15.230469 29.78125 15.5 L 29.78125 16.398438 C 29.78125 16.667969 30.003906 16.9375 30.320312 16.9375 Z M 30.320312 16.9375 " fill-opacity="1" fill-rule="nonzero"/><path fill="#5e17eb" d="M 23.847656 16.53125 C 23.578125 16.667969 23.488281 17.027344 23.625 17.296875 L 24.074219 18.058594 C 24.164062 18.238281 24.476562 18.464844 24.835938 18.285156 C 25.105469 18.148438 25.195312 17.789062 25.0625 17.519531 C 25.0625 17.519531 24.613281 16.757812 24.613281 16.757812 C 24.386719 16.308594 23.9375 16.488281 23.847656 16.53125 Z M 23.847656 16.53125 " fill-opacity="1" fill-rule="nonzero"/><path fill="#5e17eb" d="M 19.578125 34.238281 L 20.34375 33.789062 C 20.613281 33.65625 20.703125 33.296875 20.566406 33.027344 C 20.433594 32.757812 20.074219 32.667969 19.804688 32.800781 L 19.039062 33.25 C 18.769531 33.386719 18.679688 33.746094 18.816406 34.015625 C 18.90625 34.238281 19.175781 34.464844 19.578125 34.238281 Z M 19.578125 34.238281 " fill-opacity="1" fill-rule="nonzero"/><path fill="#5e17eb" d="M 23.265625 38.058594 C 23.085938 38.328125 23.21875 38.867188 23.757812 38.914062 C 23.9375 38.914062 24.117188 38.824219 24.253906 38.644531 L 24.703125 37.878906 C 24.882812 37.609375 24.792969 37.25 24.523438 37.117188 C 24.253906 36.9375 23.9375 37.027344 23.757812 37.296875 C 23.714844 37.296875 23.265625 38.058594 23.265625 38.058594 Z M 23.265625 38.058594 " fill-opacity="1" fill-rule="nonzero"/><path fill="#5e17eb" d="M 29.332031 39.226562 L 29.332031 40.125 C 29.332031 40.441406 29.554688 40.710938 29.871094 40.710938 C 30.183594 40.710938 30.410156 40.484375 30.410156 40.171875 L 30.410156 39.273438 C 30.453125 38.464844 29.332031 38.417969 29.332031 39.226562 Z M 29.332031 39.226562 " fill-opacity="1" fill-rule="nonzero"/><path fill="#5e17eb" d="M 35.351562 37.339844 C 35.082031 37.476562 34.992188 37.835938 35.128906 38.105469 L 35.578125 38.867188 C 35.667969 39.046875 35.847656 39.183594 36.074219 39.183594 C 36.164062 39.183594 36.253906 39.136719 36.34375 39.09375 C 36.613281 38.957031 36.703125 38.597656 36.566406 38.328125 L 36.117188 37.566406 C 35.980469 37.296875 35.621094 37.207031 35.351562 37.339844 Z M 35.351562 37.339844 " fill-opacity="1" fill-rule="nonzero"/><path fill="#5e17eb" d="M 40.925781 33.699219 L 40.160156 33.25 C 39.890625 33.070312 39.53125 33.160156 39.398438 33.429688 C 39.261719 33.699219 39.308594 34.015625 39.578125 34.195312 C 39.578125 34.195312 39.578125 34.195312 39.621094 34.195312 L 40.386719 34.644531 C 40.65625 34.824219 41.015625 34.734375 41.152344 34.464844 C 41.152344 34.464844 41.152344 34.464844 41.152344 34.417969 C 41.285156 34.195312 41.195312 33.835938 40.925781 33.699219 Z M 40.925781 33.699219 " fill-opacity="1" fill-rule="nonzero"/><path fill="#5e17eb" d="M 41.554688 27.453125 C 41.242188 27.453125 41.015625 27.675781 40.972656 27.992188 C 40.972656 28.308594 41.195312 28.578125 41.511719 28.578125 L 42.410156 28.578125 C 42.722656 28.578125 42.949219 28.308594 42.949219 28.039062 C 42.949219 27.765625 42.679688 27.496094 42.410156 27.496094 L 41.554688 27.496094 Z M 41.554688 27.453125 " fill-opacity="1" fill-rule="nonzero"/><path fill="#5e17eb" d="M 40.117188 22.867188 C 40.207031 22.867188 40.296875 22.824219 40.386719 22.777344 L 41.152344 22.328125 C 41.421875 22.195312 41.511719 21.835938 41.375 21.566406 C 41.242188 21.296875 40.882812 21.207031 40.613281 21.339844 L 39.847656 21.789062 C 39.578125 21.925781 39.488281 22.285156 39.621094 22.554688 C 39.710938 22.734375 39.890625 22.824219 40.117188 22.867188 Z M 40.117188 22.867188 " fill-opacity="1" fill-rule="nonzero"/><path fill="#5e17eb" d="M 30.183594 28.398438 C 30.230469 28.351562 30.230469 28.261719 30.230469 28.21875 C 30.230469 28.171875 30.183594 28.082031 30.140625 28.039062 C 30.09375 27.992188 30.003906 27.992188 29.960938 27.992188 C 29.914062 27.992188 29.824219 28.039062 29.78125 28.082031 C 29.691406 28.171875 29.691406 28.351562 29.78125 28.441406 C 29.914062 28.53125 30.050781 28.53125 30.183594 28.398438 Z M 30.183594 28.398438 " fill-opacity="1" fill-rule="nonzero"/><path fill="#5e17eb" d="M 30.050781 37.96875 C 35.710938 37.96875 40.25 33.386719 40.25 27.765625 C 40.25 22.148438 35.710938 17.566406 30.050781 17.566406 C 24.386719 17.566406 19.847656 22.105469 19.847656 27.765625 C 19.847656 33.386719 24.433594 37.96875 30.050781 37.96875 Z M 23.625 22.554688 C 23.847656 22.328125 24.207031 22.285156 24.433594 22.507812 L 29.421875 26.957031 C 29.554688 26.867188 29.734375 26.867188 29.914062 26.824219 C 30.09375 26.824219 30.230469 26.824219 30.410156 26.867188 L 35.757812 20.890625 C 35.9375 20.667969 36.296875 20.578125 36.566406 20.800781 C 36.792969 20.980469 36.882812 21.339844 36.65625 21.609375 C 36.65625 21.609375 31.21875 27.675781 31.21875 27.675781 C 31.308594 27.8125 31.308594 27.992188 31.351562 28.171875 C 31.351562 28.9375 30.769531 29.566406 30.003906 29.566406 C 29.242188 29.566406 28.613281 28.980469 28.613281 28.21875 C 28.613281 28.082031 28.613281 27.945312 28.65625 27.8125 L 23.667969 23.316406 C 23.445312 23.136719 23.445312 22.777344 23.625 22.554688 Z M 23.625 22.554688 " fill-opacity="1" fill-rule="nonzero"/><g fill="#5e17eb" fill-opacity="1"><g transform="translate(9.512695, 39.389999)"><g><path d="M 0.453125 0 L 0.453125 -0.34375 C 0.453125 -0.382812 0.441406 -0.414062 0.421875 -0.4375 C 0.398438 -0.457031 0.367188 -0.46875 0.328125 -0.46875 C 0.273438 -0.46875 0.234375 -0.453125 0.203125 -0.421875 C 0.179688 -0.398438 0.171875 -0.351562 0.171875 -0.28125 L 0.171875 0 L 0.09375 0 L 0.09375 -0.765625 L 0.171875 -0.765625 L 0.171875 -0.53125 C 0.171875 -0.5 0.164062 -0.476562 0.15625 -0.46875 L 0.171875 -0.46875 C 0.179688 -0.488281 0.203125 -0.503906 0.234375 -0.515625 C 0.265625 -0.535156 0.300781 -0.546875 0.34375 -0.546875 C 0.40625 -0.546875 0.453125 -0.53125 0.484375 -0.5 C 0.515625 -0.46875 0.53125 -0.414062 0.53125 -0.34375 L 0.53125 0 Z M 0.453125 0 "/></g></g></g></svg>