<svg xmlns="http://www.w3.org/2000/svg" xmlns:xlink="http://www.w3.org/1999/xlink" width="80" zoomAndPan="magnify" viewBox="0 0 60 60" height="80" preserveAspectRatio="xMidYMid meet" version="1.0"><defs><g/><clipPath id="628fa0a53b"><path d="M 1.789062 12.171875 L 58.039062 12.171875 L 58.039062 42.921875 L 1.789062 42.921875 Z M 1.789062 12.171875 " clip-rule="nonzero"/></clipPath></defs><rect x="-6" width="72" fill="#ffffff" y="-6" height="72" fill-opacity="1"/><rect x="-6" width="72" fill="#ffffff" y="-6" height="72" fill-opacity="1"/><g clip-path="url(#628fa0a53b)"><path fill="#5e17eb" d="M 20.980469 43.109375 C 20.636719 43.109375 20.480469 42.878906 20.628906 42.59375 C 20.777344 42.3125 21.179688 42.082031 21.523438 42.082031 L 24.015625 42.082031 C 24.359375 42.082031 24.515625 42.3125 24.367188 42.59375 C 24.21875 42.878906 23.820312 43.109375 23.472656 43.109375 Z M 15.996094 43.109375 C 15.652344 43.109375 15.496094 42.878906 15.644531 42.59375 C 15.792969 42.3125 16.191406 42.082031 16.539062 42.082031 L 19.03125 42.082031 C 19.375 42.082031 19.53125 42.3125 19.382812 42.59375 C 19.234375 42.878906 18.832031 43.109375 18.488281 43.109375 Z M 11.011719 43.109375 C 10.667969 43.109375 10.511719 42.878906 10.660156 42.59375 C 10.808594 42.3125 11.207031 42.082031 11.554688 42.082031 L 14.046875 42.082031 C 14.390625 42.082031 14.546875 42.3125 14.398438 42.59375 C 14.25 42.878906 13.847656 43.109375 13.503906 43.109375 Z M 25.964844 43.109375 C 25.621094 43.109375 25.464844 42.878906 25.613281 42.59375 C 25.761719 42.3125 26.164062 42.082031 26.507812 42.082031 L 29 42.082031 C 29.34375 42.082031 29.5 42.3125 29.351562 42.59375 C 29.203125 42.878906 28.804688 43.109375 28.460938 43.109375 Z M 31.152344 42.976562 C 30.78125 43.039062 30.539062 42.867188 30.609375 42.589844 C 30.675781 42.3125 31.03125 42.039062 31.402344 41.972656 C 32.203125 41.835938 33.023438 41.570312 33.808594 41.195312 C 34.171875 41.023438 34.542969 41.066406 34.632812 41.292969 C 34.726562 41.515625 34.503906 41.839844 34.140625 42.011719 C 33.164062 42.476562 32.144531 42.808594 31.152344 42.976562 Z M 36.824219 40.277344 C 36.53125 40.527344 36.105469 40.625 35.871094 40.492188 C 35.636719 40.359375 35.679688 40.046875 35.972656 39.796875 C 36.601562 39.253906 37.117188 38.660156 37.484375 38.039062 C 37.648438 37.753906 38.058594 37.535156 38.394531 37.550781 C 38.730469 37.566406 38.867188 37.808594 38.699219 38.089844 C 38.246094 38.863281 37.605469 39.605469 36.824219 40.277344 Z M 39.433594 35.820312 C 39.421875 36.082031 39.113281 36.382812 38.738281 36.488281 C 38.363281 36.597656 38.066406 36.46875 38.074219 36.207031 C 38.09375 35.636719 37.9375 35.121094 37.613281 34.699219 C 37.46875 34.503906 37.625 34.179688 37.972656 33.972656 C 38.316406 33.765625 38.714844 33.757812 38.863281 33.953125 C 39.261719 34.476562 39.457031 35.113281 39.433594 35.820312 Z M 37.117188 32.785156 C 37.394531 32.875 37.417969 33.164062 37.167969 33.433594 C 36.917969 33.703125 36.488281 33.847656 36.207031 33.757812 C 35.765625 33.613281 35.253906 33.539062 34.699219 33.539062 L 34.035156 33.539062 C 33.691406 33.539062 33.53125 33.308594 33.679688 33.023438 C 33.828125 32.738281 34.230469 32.507812 34.574219 32.507812 L 35.238281 32.507812 C 35.933594 32.511719 36.566406 32.605469 37.117188 32.785156 Z M 32.097656 32.507812 C 32.4375 32.515625 32.585938 32.75 32.425781 33.035156 C 32.269531 33.320312 31.863281 33.542969 31.523438 33.535156 C 30.597656 33.515625 29.792969 33.324219 29.148438 32.980469 C 28.910156 32.851562 28.949219 32.542969 29.238281 32.289062 C 29.523438 32.035156 29.953125 31.933594 30.195312 32.0625 C 30.707031 32.335938 31.355469 32.492188 32.097656 32.507812 Z M 29.089844 30.90625 C 29.1875 31.132812 28.96875 31.453125 28.609375 31.628906 C 28.246094 31.804688 27.875 31.765625 27.777344 31.542969 C 27.523438 30.945312 27.480469 30.246094 27.664062 29.496094 C 27.734375 29.222656 28.085938 28.945312 28.457031 28.882812 C 28.824219 28.816406 29.066406 28.988281 29 29.265625 C 28.851562 29.867188 28.886719 30.425781 29.089844 30.90625 Z M 29.960938 27.417969 C 29.742188 27.695312 29.316406 27.871094 29.011719 27.808594 C 28.710938 27.746094 28.640625 27.472656 28.859375 27.195312 C 29.457031 26.445312 30.222656 25.746094 31.105469 25.140625 C 31.433594 24.914062 31.847656 24.875 32.027344 25.046875 C 32.207031 25.222656 32.089844 25.542969 31.761719 25.769531 C 31.054688 26.253906 30.4375 26.816406 29.960938 27.417969 Z M 34.074219 24.597656 C 33.703125 24.730469 33.378906 24.628906 33.351562 24.378906 C 33.328125 24.125 33.613281 23.816406 33.984375 23.683594 C 34.988281 23.335938 35.996094 23.140625 36.945312 23.113281 C 37.296875 23.101562 37.46875 23.324219 37.332031 23.609375 C 37.195312 23.894531 36.800781 24.132812 36.449219 24.140625 C 35.6875 24.164062 34.878906 24.320312 34.074219 24.597656 Z M 38.957031 24.136719 C 38.613281 24.136719 38.453125 23.90625 38.601562 23.625 C 38.75 23.339844 39.152344 23.109375 39.496094 23.109375 L 41.988281 23.109375 C 42.332031 23.109375 42.488281 23.339844 42.339844 23.625 C 42.191406 23.90625 41.792969 24.136719 41.449219 24.136719 Z M 44.160156 23.796875 C 43.789062 23.871094 43.53125 23.707031 43.585938 23.433594 C 43.644531 23.160156 43.988281 22.878906 44.359375 22.804688 L 45.941406 22.488281 C 46.3125 22.417969 46.570312 22.578125 46.515625 22.855469 C 46.460938 23.128906 46.113281 23.410156 45.742188 23.484375 Z M 8.640625 24.738281 C 12.425781 24.738281 15.492188 27.804688 15.496094 31.589844 C 15.496094 34.132812 14.257812 36.730469 12.207031 39.261719 C 11.496094 40.136719 10.734375 40.941406 9.976562 41.660156 C 9.710938 41.910156 9.460938 42.132812 9.238281 42.324219 C 9.160156 42.394531 9.089844 42.453125 9.03125 42.503906 C 8.992188 42.535156 8.96875 42.554688 8.953125 42.566406 L 8.640625 42.816406 L 8.328125 42.566406 C 8.316406 42.554688 8.289062 42.535156 8.25 42.503906 C 8.191406 42.453125 8.121094 42.394531 8.042969 42.324219 C 7.820312 42.132812 7.570312 41.910156 7.304688 41.660156 C 6.546875 40.941406 5.785156 40.136719 5.074219 39.261719 C 3.023438 36.730469 1.789062 34.132812 1.789062 31.589844 C 1.789062 27.804688 4.855469 24.738281 8.640625 24.738281 Z M 8.683594 34.746094 C 10.398438 34.746094 11.796875 33.347656 11.796875 31.628906 C 11.796875 29.910156 10.402344 28.515625 8.683594 28.515625 C 6.964844 28.515625 5.566406 29.910156 5.566406 31.628906 C 5.566406 33.351562 6.964844 34.746094 8.683594 34.746094 Z M 58.34375 16.628906 C 58.34375 17.03125 58.054688 17.339844 57.703125 17.324219 L 57.546875 17.316406 C 57.546875 17.316406 57.546875 17.316406 57.546875 17.320312 C 57.632812 17.574219 57.679688 17.851562 57.679688 18.140625 L 57.679688 18.992188 C 57.679688 19.828125 57.476562 20.535156 57.019531 20.863281 L 57.019531 21.800781 C 57.019531 22.273438 56.683594 22.636719 56.269531 22.617188 L 55.585938 22.582031 C 55.171875 22.5625 54.835938 22.164062 54.835938 21.695312 L 54.835938 20.984375 L 48.761719 20.683594 L 48.761719 21.394531 C 48.761719 21.863281 48.429688 22.230469 48.015625 22.210938 L 47.328125 22.175781 C 46.917969 22.15625 46.582031 21.757812 46.582031 21.285156 L 46.582031 20.351562 C 46.125 19.976562 45.921875 19.246094 45.921875 18.414062 L 45.921875 17.558594 C 45.921875 17.273438 45.96875 17 46.050781 16.753906 C 46.050781 16.75 46.050781 16.75 46.050781 16.75 L 45.894531 16.742188 C 45.542969 16.722656 45.257812 16.382812 45.257812 15.980469 C 45.257812 15.578125 45.542969 15.269531 45.894531 15.285156 L 46.519531 15.316406 C 46.542969 15.316406 46.5625 15.324219 46.582031 15.328125 L 47.394531 13.292969 C 47.652344 12.648438 48.269531 12.1875 48.832031 12.214844 L 49.726562 12.257812 L 53.871094 12.464844 L 54.765625 12.507812 C 55.320312 12.535156 55.953125 13.070312 56.203125 13.726562 L 57.015625 15.839844 C 57.035156 15.839844 57.058594 15.835938 57.082031 15.835938 L 57.703125 15.867188 C 58.054688 15.886719 58.34375 16.226562 58.34375 16.628906 Z M 58.34375 16.628906 " fill-opacity="1" fill-rule="evenodd"/></g><g fill="#5e17eb" fill-opacity="1"><g transform="translate(9.512695, 39.389999)"><g><path d="M 0.453125 0 L 0.453125 -0.34375 C 0.453125 -0.382812 0.441406 -0.414062 0.421875 -0.4375 C 0.398438 -0.457031 0.367188 -0.46875 0.328125 -0.46875 C 0.273438 -0.46875 0.234375 -0.453125 0.203125 -0.421875 C 0.179688 -0.398438 0.171875 -0.351562 0.171875 -0.28125 L 0.171875 0 L 0.09375 0 L 0.09375 -0.765625 L 0.171875 -0.765625 L 0.171875 -0.53125 C 0.171875 -0.5 0.164062 -0.476562 0.15625 -0.46875 L 0.171875 -0.46875 C 0.179688 -0.488281 0.203125 -0.503906 0.234375 -0.515625 C 0.265625 -0.535156 0.300781 -0.546875 0.34375 -0.546875 C 0.40625 -0.546875 0.453125 -0.53125 0.484375 -0.5 C 0.515625 -0.46875 0.53125 -0.414062 0.53125 -0.34375 L 0.53125 0 Z M 0.453125 0 "/></g></g></g></svg>