<svg xmlns="http://www.w3.org/2000/svg" xmlns:xlink="http://www.w3.org/1999/xlink" width="80" zoomAndPan="magnify" viewBox="0 0 60 60" height="80" preserveAspectRatio="xMidYMid meet" version="1.0"><defs><g/><clipPath id="5c659bd9ec"><path d="M 13.5 13.5 L 48.75 13.5 L 48.75 48.75 L 13.5 48.75 Z M 13.5 13.5 " clip-rule="nonzero"/></clipPath><clipPath id="b3ab5eec9f"><path d="M 14.976562 44.027344 L 25.480469 44.027344 C 26.292969 44.027344 26.957031 43.367188 26.957031 42.554688 L 26.957031 23.527344 L 43.664062 23.527344 C 43.816406 23.527344 43.941406 23.402344 43.941406 23.25 L 43.941406 13.78125 C 43.941406 13.625 43.816406 13.5 43.664062 13.5 L 23.882812 13.5 C 23.726562 13.5 23.601562 13.625 23.601562 13.78125 L 23.601562 19.351562 L 14.976562 19.351562 C 14.972656 19.351562 14.96875 19.351562 14.96875 19.351562 C 14.964844 19.351562 14.960938 19.351562 14.957031 19.351562 C 14.152344 19.363281 13.5 20.019531 13.5 20.828125 L 13.5 42.554688 C 13.5 43.367188 14.164062 44.027344 14.976562 44.027344 Z M 25.480469 43.46875 L 14.976562 43.46875 C 14.570312 43.46875 14.230469 43.199219 14.109375 42.832031 L 26.347656 42.832031 C 26.226562 43.199219 25.886719 43.46875 25.480469 43.46875 Z M 23.867188 19.910156 C 23.871094 19.910156 23.875 19.914062 23.882812 19.914062 C 23.886719 19.914062 23.894531 19.910156 23.898438 19.910156 L 25.035156 19.910156 L 24.460938 21.117188 L 15.996094 21.117188 L 15.421875 19.910156 Z M 25.5 19.351562 C 25.496094 19.351562 25.492188 19.351562 25.488281 19.351562 C 25.488281 19.351562 25.484375 19.351562 25.480469 19.351562 L 25.273438 19.351562 L 25.273438 16.253906 C 25.871094 16.140625 26.34375 15.667969 26.457031 15.070312 L 41.085938 15.070312 C 41.203125 15.667969 41.671875 16.140625 42.269531 16.253906 L 42.269531 20.773438 C 41.671875 20.886719 41.203125 21.359375 41.085938 21.957031 L 26.957031 21.957031 L 26.957031 20.828125 C 26.957031 20.019531 26.304688 19.363281 25.5 19.351562 Z M 24.164062 14.0625 L 43.382812 14.0625 L 43.382812 22.96875 L 26.957031 22.96875 L 26.957031 22.519531 L 41.339844 22.519531 C 41.496094 22.519531 41.621094 22.394531 41.621094 22.238281 C 41.621094 21.726562 42.039062 21.308594 42.550781 21.308594 C 42.707031 21.308594 42.832031 21.183594 42.832031 21.027344 L 42.832031 16 C 42.832031 15.847656 42.707031 15.722656 42.550781 15.722656 C 42.039062 15.722656 41.621094 15.304688 41.621094 14.789062 C 41.621094 14.636719 41.496094 14.511719 41.339844 14.511719 L 26.203125 14.511719 C 26.046875 14.511719 25.921875 14.636719 25.921875 14.789062 C 25.921875 15.304688 25.503906 15.722656 24.992188 15.722656 C 24.839844 15.722656 24.710938 15.847656 24.710938 16 L 24.710938 19.351562 L 24.164062 19.351562 Z M 14.808594 19.929688 L 15.566406 21.515625 C 15.609375 21.613281 15.710938 21.675781 15.816406 21.675781 L 24.640625 21.675781 C 24.746094 21.675781 24.847656 21.613281 24.890625 21.515625 L 25.648438 19.929688 C 26.074219 20.007812 26.394531 20.378906 26.394531 20.828125 L 26.394531 42.273438 L 14.0625 42.273438 L 14.0625 20.828125 C 14.0625 20.378906 14.382812 20.007812 14.808594 19.929688 Z M 20.226562 36.847656 C 23.363281 36.847656 25.917969 34.296875 25.917969 31.160156 C 25.917969 28.023438 23.363281 25.472656 20.226562 25.472656 C 17.089844 25.472656 14.539062 28.023438 14.539062 31.160156 C 14.539062 34.296875 17.089844 36.847656 20.226562 36.847656 Z M 20.226562 26.03125 C 23.054688 26.03125 25.355469 28.332031 25.355469 31.160156 C 25.355469 33.988281 23.054688 36.289062 20.226562 36.289062 C 17.398438 36.289062 15.101562 33.988281 15.101562 31.160156 C 15.101562 28.332031 17.402344 26.03125 20.226562 26.03125 Z M 18.820312 32.847656 C 18.820312 32.695312 18.695312 32.570312 18.539062 32.570312 C 18.382812 32.570312 18.257812 32.695312 18.257812 32.847656 C 18.257812 33.839844 18.996094 34.660156 19.949219 34.796875 L 19.949219 35.0625 C 19.949219 35.21875 20.074219 35.34375 20.230469 35.34375 C 20.382812 35.34375 20.507812 35.21875 20.507812 35.0625 L 20.507812 34.796875 C 21.460938 34.660156 22.199219 33.839844 22.199219 32.847656 C 22.199219 32.324219 21.992188 31.828125 21.621094 31.457031 C 21.316406 31.152344 20.929688 30.960938 20.507812 30.902344 L 20.507812 28.089844 C 21.152344 28.222656 21.636719 28.789062 21.636719 29.472656 C 21.636719 29.625 21.761719 29.75 21.917969 29.75 C 22.074219 29.75 22.199219 29.625 22.199219 29.472656 C 22.199219 28.480469 21.460938 27.660156 20.507812 27.523438 L 20.507812 27.257812 C 20.507812 27.101562 20.382812 26.976562 20.230469 26.976562 C 20.074219 26.976562 19.949219 27.101562 19.949219 27.257812 L 19.949219 27.523438 C 18.996094 27.660156 18.257812 28.480469 18.257812 29.472656 C 18.257812 30.460938 18.996094 31.28125 19.949219 31.417969 L 19.949219 34.230469 C 19.304688 34.097656 18.820312 33.53125 18.820312 32.847656 Z M 21.222656 31.851562 C 21.492188 32.117188 21.636719 32.472656 21.636719 32.847656 C 21.636719 33.53125 21.152344 34.097656 20.507812 34.230469 L 20.507812 31.46875 C 20.777344 31.523438 21.027344 31.652344 21.222656 31.851562 Z M 18.820312 29.472656 C 18.820312 28.789062 19.304688 28.222656 19.949219 28.089844 L 19.949219 30.851562 C 19.304688 30.722656 18.820312 30.152344 18.820312 29.472656 Z M 31.171875 34.84375 L 40.128906 34.84375 C 40.285156 34.84375 40.410156 34.714844 40.410156 34.5625 L 40.410156 31.664062 C 40.410156 31.507812 40.285156 31.382812 40.128906 31.382812 L 31.171875 31.382812 C 31.019531 31.382812 30.894531 31.507812 30.894531 31.664062 L 30.894531 34.5625 C 30.894531 34.714844 31.019531 34.84375 31.171875 34.84375 Z M 31.453125 31.945312 L 39.847656 31.945312 L 39.847656 34.28125 L 31.453125 34.28125 Z M 39.296875 33.113281 C 39.296875 33.269531 39.171875 33.394531 39.019531 33.394531 L 35.179688 33.394531 C 35.027344 33.394531 34.898438 33.269531 34.898438 33.113281 C 34.898438 32.957031 35.027344 32.832031 35.179688 32.832031 L 39.019531 32.832031 C 39.171875 32.832031 39.296875 32.957031 39.296875 33.113281 Z M 34.328125 33.113281 C 34.328125 33.269531 34.203125 33.394531 34.050781 33.394531 L 32.285156 33.394531 C 32.128906 33.394531 32.003906 33.269531 32.003906 33.113281 C 32.003906 32.957031 32.128906 32.832031 32.285156 32.832031 L 34.050781 32.832031 C 34.203125 32.832031 34.328125 32.957031 34.328125 33.113281 Z M 36.425781 35.539062 L 34.875 35.539062 C 34.722656 35.539062 34.597656 35.664062 34.597656 35.820312 L 34.597656 37.371094 C 34.597656 37.523438 34.722656 37.648438 34.875 37.648438 L 36.425781 37.648438 C 36.582031 37.648438 36.707031 37.523438 36.707031 37.371094 L 36.707031 35.820312 C 36.707031 35.664062 36.582031 35.539062 36.425781 35.539062 Z M 36.144531 37.089844 L 35.15625 37.089844 L 35.15625 36.101562 L 36.144531 36.101562 Z M 36.425781 38.125 L 34.875 38.125 C 34.722656 38.125 34.597656 38.25 34.597656 38.402344 L 34.597656 39.953125 C 34.597656 40.105469 34.722656 40.234375 34.875 40.234375 L 36.425781 40.234375 C 36.582031 40.234375 36.707031 40.105469 36.707031 39.953125 L 36.707031 38.402344 C 36.707031 38.25 36.582031 38.125 36.425781 38.125 Z M 36.144531 39.671875 L 35.15625 39.671875 L 35.15625 38.683594 L 36.144531 38.683594 Z M 36.425781 40.707031 L 34.875 40.707031 C 34.722656 40.707031 34.597656 40.832031 34.597656 40.988281 L 34.597656 42.535156 C 34.597656 42.691406 34.722656 42.816406 34.875 42.816406 L 36.425781 42.816406 C 36.582031 42.816406 36.707031 42.691406 36.707031 42.535156 L 36.707031 40.988281 C 36.707031 40.832031 36.582031 40.707031 36.425781 40.707031 Z M 36.144531 42.253906 L 35.15625 42.253906 L 35.15625 41.269531 L 36.144531 41.269531 Z M 33.058594 35.539062 L 31.507812 35.539062 C 31.355469 35.539062 31.230469 35.664062 31.230469 35.820312 L 31.230469 37.371094 C 31.230469 37.523438 31.355469 37.648438 31.507812 37.648438 L 33.058594 37.648438 C 33.214844 37.648438 33.339844 37.523438 33.339844 37.371094 L 33.339844 35.820312 C 33.339844 35.664062 33.214844 35.539062 33.058594 35.539062 Z M 32.777344 37.089844 L 31.789062 37.089844 L 31.789062 36.101562 L 32.777344 36.101562 Z M 33.058594 38.125 L 31.507812 38.125 C 31.355469 38.125 31.230469 38.25 31.230469 38.402344 L 31.230469 39.953125 C 31.230469 40.105469 31.355469 40.234375 31.507812 40.234375 L 33.058594 40.234375 C 33.214844 40.234375 33.339844 40.105469 33.339844 39.953125 L 33.339844 38.402344 C 33.339844 38.25 33.214844 38.125 33.058594 38.125 Z M 32.777344 39.671875 L 31.789062 39.671875 L 31.789062 38.683594 L 32.777344 38.683594 Z M 33.058594 40.707031 L 31.507812 40.707031 C 31.355469 40.707031 31.230469 40.832031 31.230469 40.988281 L 31.230469 42.535156 C 31.230469 42.691406 31.355469 42.816406 31.507812 42.816406 L 33.058594 42.816406 C 33.214844 42.816406 33.339844 42.691406 33.339844 42.535156 L 33.339844 40.988281 C 33.339844 40.832031 33.214844 40.707031 33.058594 40.707031 Z M 32.777344 42.253906 L 31.789062 42.253906 L 31.789062 41.269531 L 32.777344 41.269531 Z M 39.792969 35.539062 L 38.242188 35.539062 C 38.089844 35.539062 37.964844 35.664062 37.964844 35.820312 L 37.964844 37.371094 C 37.964844 37.523438 38.089844 37.648438 38.242188 37.648438 L 39.792969 37.648438 C 39.949219 37.648438 40.074219 37.523438 40.074219 37.371094 L 40.074219 35.820312 C 40.074219 35.664062 39.949219 35.539062 39.792969 35.539062 Z M 39.511719 37.089844 L 38.523438 37.089844 L 38.523438 36.101562 L 39.511719 36.101562 Z M 39.792969 38.125 L 38.242188 38.125 C 38.089844 38.125 37.964844 38.25 37.964844 38.402344 L 37.964844 39.953125 C 37.964844 40.105469 38.089844 40.234375 38.242188 40.234375 L 39.792969 40.234375 C 39.949219 40.234375 40.074219 40.105469 40.074219 39.953125 L 40.074219 38.402344 C 40.074219 38.25 39.949219 38.125 39.792969 38.125 Z M 39.511719 39.671875 L 38.523438 39.671875 L 38.523438 38.683594 L 39.511719 38.683594 Z M 39.792969 40.707031 L 38.242188 40.707031 C 38.089844 40.707031 37.964844 40.832031 37.964844 40.988281 L 37.964844 42.535156 C 37.964844 42.691406 38.089844 42.816406 38.242188 42.816406 L 39.792969 42.816406 C 39.949219 42.816406 40.074219 42.691406 40.074219 42.535156 L 40.074219 40.988281 C 40.074219 40.832031 39.949219 40.707031 39.792969 40.707031 Z M 39.511719 42.253906 L 38.523438 42.253906 L 38.523438 41.269531 L 39.511719 41.269531 Z M 36.425781 43.289062 L 34.875 43.289062 C 34.722656 43.289062 34.597656 43.414062 34.597656 43.570312 L 34.597656 45.117188 C 34.597656 45.273438 34.722656 45.398438 34.875 45.398438 L 36.425781 45.398438 C 36.582031 45.398438 36.707031 45.273438 36.707031 45.117188 L 36.707031 43.570312 C 36.707031 43.414062 36.582031 43.289062 36.425781 43.289062 Z M 36.144531 44.839844 L 35.15625 44.839844 L 35.15625 43.851562 L 36.144531 43.851562 Z M 36.488281 26.800781 C 36.488281 26.644531 36.613281 26.519531 36.769531 26.519531 L 37.71875 26.519531 C 37.875 26.519531 38 26.644531 38 26.800781 C 38 26.957031 37.875 27.082031 37.71875 27.082031 L 36.769531 27.082031 C 36.613281 27.082031 36.488281 26.957031 36.488281 26.800781 Z M 35.96875 26.800781 C 35.96875 26.957031 35.84375 27.082031 35.691406 27.082031 L 33.554688 27.082031 C 33.402344 27.082031 33.277344 26.957031 33.277344 26.800781 C 33.277344 26.644531 33.402344 26.519531 33.554688 26.519531 L 35.691406 26.519531 C 35.84375 26.519531 35.96875 26.644531 35.96875 26.800781 Z M 38 27.890625 C 38 28.042969 37.875 28.171875 37.71875 28.171875 L 36.769531 28.171875 C 36.613281 28.171875 36.488281 28.042969 36.488281 27.890625 C 36.488281 27.734375 36.613281 27.609375 36.769531 27.609375 L 37.71875 27.609375 C 37.875 27.609375 38 27.734375 38 27.890625 Z M 35.96875 27.890625 C 35.96875 28.042969 35.84375 28.171875 35.691406 28.171875 L 33.554688 28.171875 C 33.402344 28.171875 33.277344 28.042969 33.277344 27.890625 C 33.277344 27.734375 33.402344 27.609375 33.554688 27.609375 L 35.691406 27.609375 C 35.84375 27.609375 35.96875 27.734375 35.96875 27.890625 Z M 38 29.003906 C 38 29.160156 37.875 29.285156 37.71875 29.285156 L 36.769531 29.285156 C 36.613281 29.285156 36.488281 29.160156 36.488281 29.003906 C 36.488281 28.851562 36.613281 28.726562 36.769531 28.726562 L 37.71875 28.726562 C 37.875 28.726562 38 28.851562 38 29.003906 Z M 35.96875 29.003906 C 35.96875 29.160156 35.84375 29.285156 35.691406 29.285156 L 33.554688 29.285156 C 33.402344 29.285156 33.277344 29.160156 33.277344 29.003906 C 33.277344 28.851562 33.402344 28.726562 33.554688 28.726562 L 35.691406 28.726562 C 35.84375 28.726562 35.96875 28.851562 35.96875 29.003906 Z M 47.621094 29.007812 L 42.492188 29.007812 C 41.828125 29.007812 41.289062 29.546875 41.289062 30.207031 L 41.289062 30.28125 C 40.929688 29.910156 40.425781 29.679688 39.871094 29.679688 L 39.125 29.679688 L 39.125 24.21875 C 39.125 24.113281 39.070312 24.019531 38.976562 23.96875 C 38.886719 23.921875 38.773438 23.925781 38.6875 23.984375 L 37.628906 24.695312 L 36.703125 23.992188 C 36.597656 23.914062 36.453125 23.917969 36.351562 24.003906 L 35.523438 24.726562 L 34.757812 24.011719 C 34.699219 23.957031 34.621094 23.933594 34.542969 23.9375 C 34.464844 23.945312 34.394531 23.984375 34.34375 24.046875 L 33.65625 24.929688 L 32.617188 24.007812 C 32.535156 23.933594 32.414062 23.917969 32.316406 23.960938 C 32.214844 24.007812 32.148438 24.105469 32.148438 24.21875 L 32.148438 29.679688 L 31.429688 29.679688 C 30.339844 29.679688 29.453125 30.566406 29.453125 31.660156 L 29.453125 46.839844 C 29.453125 47.933594 30.339844 48.820312 31.429688 48.820312 L 39.871094 48.820312 C 40.964844 48.820312 41.851562 47.933594 41.851562 46.839844 L 41.851562 43.460938 L 42.949219 42.972656 C 43.050781 42.929688 43.113281 42.828125 43.113281 42.71875 L 43.113281 40.855469 L 47.621094 40.855469 C 48.28125 40.855469 48.820312 40.316406 48.820312 39.652344 L 48.820312 30.207031 C 48.820312 29.546875 48.28125 29.007812 47.621094 29.007812 Z M 32.710938 24.839844 L 33.507812 25.550781 C 33.566406 25.601562 33.644531 25.625 33.71875 25.617188 C 33.796875 25.613281 33.867188 25.574219 33.914062 25.511719 L 34.597656 24.632812 L 35.324219 25.308594 C 35.429688 25.40625 35.589844 25.410156 35.699219 25.316406 L 36.546875 24.578125 L 37.453125 25.261719 C 37.546875 25.335938 37.679688 25.339844 37.777344 25.273438 L 38.566406 24.742188 L 38.566406 29.679688 L 32.710938 29.679688 Z M 30.011719 31.660156 C 30.011719 30.875 30.648438 30.242188 31.429688 30.242188 L 39.871094 30.242188 C 40.652344 30.242188 41.289062 30.878906 41.289062 31.660156 L 41.289062 44.796875 C 41.289062 45.578125 40.652344 46.214844 39.871094 46.214844 L 31.429688 46.214844 C 30.648438 46.214844 30.011719 45.578125 30.011719 44.796875 Z M 41.289062 46.839844 C 41.289062 47.625 40.652344 48.257812 39.871094 48.257812 L 31.429688 48.257812 C 30.648438 48.257812 30.011719 47.625 30.011719 46.839844 L 30.011719 46.171875 C 30.371094 46.542969 30.875 46.777344 31.429688 46.777344 L 39.871094 46.777344 C 40.425781 46.777344 40.929688 46.542969 41.289062 46.171875 Z M 42.554688 42.535156 L 41.851562 42.847656 L 41.851562 32.984375 L 42.554688 33.296875 Z M 48.257812 39.652344 C 48.257812 40.007812 47.972656 40.292969 47.621094 40.292969 L 43.113281 40.292969 L 43.113281 33.113281 C 43.113281 33.003906 43.050781 32.902344 42.949219 32.855469 L 41.851562 32.371094 L 41.851562 30.207031 C 41.851562 29.855469 42.136719 29.566406 42.492188 29.566406 L 47.621094 29.566406 C 47.972656 29.566406 48.257812 29.855469 48.257812 30.207031 Z M 43.816406 30.023438 C 43.085938 30.023438 42.492188 30.617188 42.492188 31.347656 C 42.492188 32.078125 43.085938 32.671875 43.816406 32.671875 C 44.546875 32.671875 45.140625 32.078125 45.140625 31.347656 C 45.140625 30.617188 44.546875 30.023438 43.816406 30.023438 Z M 43.816406 32.113281 C 43.394531 32.113281 43.050781 31.769531 43.050781 31.347656 C 43.050781 30.925781 43.394531 30.582031 43.816406 30.582031 C 44.238281 30.582031 44.582031 30.925781 44.582031 31.347656 C 44.582031 31.769531 44.238281 32.113281 43.816406 32.113281 Z M 44.601562 33.425781 L 44.601562 39.15625 C 44.601562 39.308594 44.476562 39.433594 44.320312 39.433594 C 44.167969 39.433594 44.042969 39.308594 44.042969 39.15625 L 44.042969 33.425781 C 44.042969 33.269531 44.167969 33.144531 44.320312 33.144531 C 44.476562 33.144531 44.601562 33.269531 44.601562 33.425781 Z M 46.453125 37.535156 L 46.453125 38.496094 C 46.453125 38.648438 46.324219 38.773438 46.171875 38.773438 C 46.015625 38.773438 45.890625 38.648438 45.890625 38.496094 L 45.890625 37.535156 C 45.890625 37.378906 46.015625 37.253906 46.171875 37.253906 C 46.324219 37.253906 46.453125 37.378906 46.453125 37.535156 Z M 46.453125 33.425781 L 46.453125 36.105469 C 46.453125 36.257812 46.324219 36.386719 46.171875 36.386719 C 46.015625 36.386719 45.890625 36.257812 45.890625 36.105469 L 45.890625 33.425781 C 45.890625 33.269531 46.015625 33.144531 46.171875 33.144531 C 46.324219 33.144531 46.453125 33.269531 46.453125 33.425781 Z M 33.773438 21.601562 C 35.472656 21.601562 36.859375 20.214844 36.859375 18.515625 C 36.859375 16.8125 35.472656 15.429688 33.773438 15.429688 C 32.070312 15.429688 30.6875 16.8125 30.6875 18.515625 C 30.6875 20.214844 32.070312 21.601562 33.773438 21.601562 Z M 33.773438 15.988281 C 35.164062 15.988281 36.296875 17.121094 36.296875 18.515625 C 36.296875 19.90625 35.164062 21.039062 33.773438 21.039062 C 32.378906 21.039062 31.246094 19.90625 31.246094 18.515625 C 31.246094 17.121094 32.378906 15.988281 33.773438 15.988281 Z M 33.191406 19.269531 C 33.191406 19.113281 33.0625 18.988281 32.910156 18.988281 C 32.753906 18.988281 32.628906 19.113281 32.628906 19.269531 C 32.628906 19.75 32.996094 20.152344 33.492188 20.269531 L 33.492188 20.371094 C 33.492188 20.527344 33.617188 20.652344 33.773438 20.652344 C 33.925781 20.652344 34.050781 20.527344 34.050781 20.371094 L 34.050781 20.269531 C 34.546875 20.152344 34.914062 19.75 34.914062 19.269531 C 34.914062 18.785156 34.546875 18.382812 34.050781 18.269531 L 34.050781 17.347656 C 34.230469 17.429688 34.355469 17.582031 34.355469 17.757812 C 34.355469 17.914062 34.480469 18.039062 34.632812 18.039062 C 34.789062 18.039062 34.914062 17.914062 34.914062 17.757812 C 34.914062 17.277344 34.546875 16.875 34.050781 16.761719 L 34.050781 16.65625 C 34.050781 16.5 33.925781 16.375 33.773438 16.375 C 33.617188 16.375 33.492188 16.5 33.492188 16.65625 L 33.492188 16.761719 C 32.996094 16.875 32.628906 17.277344 32.628906 17.757812 C 32.628906 18.242188 32.996094 18.644531 33.492188 18.757812 L 33.492188 19.679688 C 33.3125 19.601562 33.191406 19.445312 33.191406 19.269531 Z M 34.355469 19.269531 C 34.355469 19.445312 34.230469 19.601562 34.050781 19.679688 L 34.050781 18.855469 C 34.230469 18.9375 34.355469 19.089844 34.355469 19.269531 Z M 33.191406 17.761719 C 33.191406 17.582031 33.3125 17.429688 33.492188 17.347656 L 33.492188 18.171875 C 33.3125 18.09375 33.191406 17.9375 33.191406 17.761719 Z M 33.191406 17.761719 " clip-rule="nonzero"/></clipPath></defs><rect x="-6" width="72" fill="#ffffff" y="-6" height="72" fill-opacity="1"/><rect x="-6" width="72" fill="#ffffff" y="-6" height="72" fill-opacity="1"/><g clip-path="url(#5c659bd9ec)"><g clip-path="url(#b3ab5eec9f)"><path fill="#5e17eb" d="M 13.5 13.5 L 13.5 48.75 L 48.75 48.75 L 48.75 13.5 Z M 13.5 13.5 " fill-opacity="1" fill-rule="nonzero"/></g></g><g fill="#5e17eb" fill-opacity="1"><g transform="translate(9.512695, 39.389999)"><g><path d="M 0.453125 0 L 0.453125 -0.34375 C 0.453125 -0.382812 0.441406 -0.414062 0.421875 -0.4375 C 0.398438 -0.457031 0.367188 -0.46875 0.328125 -0.46875 C 0.273438 -0.46875 0.234375 -0.453125 0.203125 -0.421875 C 0.179688 -0.398438 0.171875 -0.351562 0.171875 -0.28125 L 0.171875 0 L 0.09375 0 L 0.09375 -0.765625 L 0.171875 -0.765625 L 0.171875 -0.53125 C 0.171875 -0.5 0.164062 -0.476562 0.15625 -0.46875 L 0.171875 -0.46875 C 0.179688 -0.488281 0.203125 -0.503906 0.234375 -0.515625 C 0.265625 -0.535156 0.300781 -0.546875 0.34375 -0.546875 C 0.40625 -0.546875 0.453125 -0.53125 0.484375 -0.5 C 0.515625 -0.46875 0.53125 -0.414062 0.53125 -0.34375 L 0.53125 0 Z M 0.453125 0 "/></g></g></g></svg>