<svg xmlns="http://www.w3.org/2000/svg" xmlns:xlink="http://www.w3.org/1999/xlink" width="80" zoomAndPan="magnify" viewBox="0 0 60 60" height="80" preserveAspectRatio="xMidYMid meet" version="1.0"><defs><g/><clipPath id="febd471f91"><path d="M 24 38 L 50.527344 38 L 50.527344 39 L 24 39 Z M 24 38 " clip-rule="nonzero"/></clipPath><clipPath id="ba55601b62"><path d="M 16 13.210938 L 24 13.210938 L 24 22 L 16 22 Z M 16 13.210938 " clip-rule="nonzero"/></clipPath><clipPath id="dd68889f83"><path d="M 11.527344 14 L 27 14 L 27 48.460938 L 11.527344 48.460938 Z M 11.527344 14 " clip-rule="nonzero"/></clipPath></defs><rect x="-6" width="72" fill="#ffffff" y="-6" height="72" fill-opacity="1"/><rect x="-6" width="72" fill="#ffffff" y="-6" height="72" fill-opacity="1"/><g clip-path="url(#febd471f91)"><path fill="#5e17eb" d="M 24.050781 38.4375 L 50.167969 38.4375 L 50.167969 39 L 24.050781 39 Z M 24.050781 38.4375 " fill-opacity="1" fill-rule="nonzero"/></g><path fill="#5e17eb" d="M 46.164062 26.601562 L 46.179688 26.640625 L 46.207031 26.710938 L 48.832031 26.710938 C 49.175781 26.710938 49.457031 26.433594 49.457031 26.085938 L 49.457031 25.460938 C 49.457031 25.117188 49.175781 24.835938 48.832031 24.835938 L 46.957031 24.835938 C 46.613281 24.835938 46.332031 25.117188 46.332031 25.460938 L 46.332031 25.773438 L 45.851562 25.773438 C 45.964844 26.074219 46.058594 26.316406 46.113281 26.460938 Z M 46.164062 26.601562 " fill-opacity="1" fill-rule="nonzero"/><path fill="#5e17eb" d="M 36.902344 22.429688 L 35.445312 22.429688 C 35.246094 22.429688 35.082031 22.59375 35.082031 22.796875 C 35.082031 22.996094 35.246094 23.160156 35.445312 23.160156 L 36.902344 23.160156 C 37.105469 23.160156 37.269531 22.996094 37.269531 22.796875 C 37.269531 22.59375 37.105469 22.429688 36.902344 22.429688 Z M 36.902344 22.429688 " fill-opacity="1" fill-rule="nonzero"/><path fill="#5e17eb" d="M 27.179688 34.59375 C 27.121094 35.628906 26.261719 36.441406 25.222656 36.441406 C 25.183594 36.441406 25.140625 36.4375 25.101562 36.4375 C 25.039062 36.433594 24.984375 36.425781 24.925781 36.417969 L 24.925781 37.578125 C 24.925781 37.921875 25.203125 38.203125 25.550781 38.203125 L 28.050781 38.203125 C 28.394531 38.203125 28.675781 37.921875 28.675781 37.578125 L 28.675781 36.328125 C 32.402344 36.328125 40.664062 36.328125 44.054688 36.328125 L 44.054688 37.617188 C 44.054688 37.941406 44.316406 38.203125 44.640625 38.203125 L 46.976562 38.203125 C 47.296875 38.203125 47.558594 37.941406 47.558594 37.617188 L 47.558594 35.285156 C 47.589844 35.285156 47.613281 35.285156 47.632812 35.285156 C 48.675781 35.285156 48.675781 33.664062 48.675781 33.664062 L 27.226562 33.664062 C 27.214844 33.972656 27.199219 34.28125 27.179688 34.59375 Z M 27.179688 34.59375 " fill-opacity="1" fill-rule="nonzero"/><path fill="#5e17eb" d="M 32.582031 33.273438 L 32.582031 30.148438 L 33.519531 30.148438 L 33.519531 33.273438 L 34.144531 33.273438 L 34.144531 30.148438 L 35.082031 30.148438 L 35.082031 33.273438 L 35.707031 33.273438 L 35.707031 30.148438 L 36.644531 30.148438 L 36.644531 33.273438 L 37.269531 33.273438 L 37.269531 30.148438 L 38.207031 30.148438 L 38.207031 33.273438 L 38.832031 33.273438 L 38.832031 30.148438 L 39.769531 30.148438 L 39.769531 33.273438 L 48.328125 33.273438 C 48.328125 33.273438 48.328125 31.261719 48.328125 29.523438 C 48.328125 28.164062 46.761719 27.226562 46.085938 26.886719 L 46 26.664062 C 46 26.660156 44.378906 22.375 44.152344 21.695312 C 44.015625 21.261719 43.652344 21.019531 43.230469 20.917969 C 42.800781 20.804688 42.277344 20.78125 41.632812 20.726562 C 40.234375 20.609375 37.691406 20.492188 36.175781 20.492188 C 34.660156 20.492188 32.113281 20.609375 30.714844 20.726562 C 30.074219 20.78125 29.546875 20.804688 29.121094 20.917969 C 28.699219 21.019531 28.335938 21.261719 28.195312 21.695312 C 28.027344 22.203125 27.085938 24.714844 26.613281 25.960938 C 26.839844 26.78125 27.007812 27.710938 27.113281 28.75 C 27.304688 28.667969 27.515625 28.621094 27.738281 28.621094 C 28.601562 28.621094 29.300781 29.320312 29.300781 30.183594 C 29.300781 31.046875 28.601562 31.746094 27.738281 31.746094 C 27.570312 31.746094 27.414062 31.722656 27.261719 31.671875 C 27.261719 31.738281 27.265625 31.796875 27.265625 31.863281 C 27.265625 32.316406 27.257812 32.789062 27.238281 33.273438 Z M 44.613281 31.746094 C 43.75 31.746094 43.050781 31.046875 43.050781 30.183594 C 43.050781 29.320312 43.75 28.621094 44.613281 28.621094 C 45.476562 28.621094 46.175781 29.320312 46.175781 30.183594 C 46.175781 31.046875 45.476562 31.746094 44.613281 31.746094 Z M 28.640625 22.761719 C 28.734375 22.5 28.886719 22.390625 29.238281 22.289062 C 29.589844 22.195312 30.105469 22.164062 30.753906 22.109375 C 32.132812 21.996094 34.679688 21.878906 36.175781 21.878906 C 37.667969 21.878906 40.214844 21.996094 41.59375 22.109375 C 42.242188 22.164062 42.761719 22.195312 43.109375 22.289062 C 43.464844 22.390625 43.613281 22.5 43.707031 22.761719 C 43.90625 23.351562 45.0625 25.507812 45.441406 26.511719 L 26.90625 26.511719 C 27.285156 25.507812 28.445312 23.351562 28.640625 22.761719 Z M 28.640625 22.761719 " fill-opacity="1" fill-rule="nonzero"/><path fill="#5e17eb" d="M 28.953125 30.183594 C 28.953125 29.515625 28.40625 28.96875 27.738281 28.96875 C 27.523438 28.96875 27.324219 29.023438 27.152344 29.121094 C 27.210938 29.800781 27.246094 30.527344 27.257812 31.300781 C 27.40625 31.363281 27.566406 31.398438 27.738281 31.398438 C 28.40625 31.398438 28.953125 30.855469 28.953125 30.183594 Z M 28.953125 30.183594 " fill-opacity="1" fill-rule="nonzero"/><path fill="#5e17eb" d="M 45.828125 30.183594 C 45.828125 30.34375 45.796875 30.5 45.738281 30.648438 C 45.675781 30.796875 45.585938 30.929688 45.472656 31.042969 C 45.359375 31.15625 45.226562 31.246094 45.078125 31.308594 C 44.929688 31.367188 44.773438 31.398438 44.613281 31.398438 C 44.453125 31.398438 44.296875 31.367188 44.148438 31.308594 C 44 31.246094 43.867188 31.15625 43.753906 31.042969 C 43.640625 30.929688 43.554688 30.796875 43.492188 30.648438 C 43.429688 30.5 43.398438 30.34375 43.398438 30.183594 C 43.398438 30.023438 43.429688 29.867188 43.492188 29.71875 C 43.554688 29.570312 43.640625 29.4375 43.753906 29.324219 C 43.867188 29.210938 44 29.125 44.148438 29.0625 C 44.296875 29 44.453125 28.96875 44.613281 28.96875 C 44.773438 28.96875 44.929688 29 45.078125 29.0625 C 45.226562 29.125 45.359375 29.210938 45.472656 29.324219 C 45.585938 29.4375 45.675781 29.570312 45.738281 29.71875 C 45.796875 29.867188 45.828125 30.023438 45.828125 30.183594 Z M 45.828125 30.183594 " fill-opacity="1" fill-rule="nonzero"/><g clip-path="url(#ba55601b62)"><path fill="#5e17eb" d="M 17.40625 15.328125 C 17.457031 15.417969 17.496094 15.507812 17.523438 15.601562 C 18.046875 15.472656 18.707031 15.394531 19.421875 15.394531 C 21.125 15.394531 22.503906 15.832031 22.503906 16.375 C 22.503906 16.453125 22.472656 16.53125 22.414062 16.605469 C 22.085938 16.179688 20.871094 15.859375 19.421875 15.859375 C 18.734375 15.859375 18.097656 15.933594 17.582031 16.054688 C 17.570312 16.53125 17.316406 16.988281 16.871094 17.234375 C 16.683594 17.339844 16.515625 17.441406 16.351562 17.539062 C 16.300781 17.765625 16.273438 18.003906 16.273438 18.246094 C 16.273438 19.8125 17.414062 21.109375 18.910156 21.355469 C 19.078125 21.382812 19.25 21.398438 19.421875 21.398438 C 19.597656 21.398438 19.765625 21.382812 19.933594 21.355469 C 21.429688 21.109375 22.574219 19.8125 22.574219 18.246094 C 22.574219 17.851562 22.5 17.476562 22.367188 17.128906 C 22.441406 17.050781 22.488281 16.96875 22.5 16.882812 C 22.867188 16.894531 23.148438 16.835938 23.273438 16.640625 C 23.691406 15.980469 22.621094 13.234375 19.421875 13.234375 C 17.875 13.234375 16.828125 13.875 16.203125 14.613281 C 16.703125 14.621094 17.164062 14.894531 17.40625 15.328125 Z M 17.40625 15.328125 " fill-opacity="1" fill-rule="nonzero"/></g><g clip-path="url(#dd68889f83)"><path fill="#5e17eb" d="M 19.097656 33.9375 L 19.746094 33.9375 L 19.746094 46.578125 C 19.746094 47.535156 20.523438 48.308594 21.476562 48.308594 C 22.433594 48.308594 23.210938 47.535156 23.210938 46.578125 L 23.210938 25.578125 C 23.292969 25.75 23.375 25.945312 23.457031 26.171875 C 23.851562 27.265625 24.183594 29.0625 24.183594 31.863281 C 24.183594 32.636719 24.160156 33.484375 24.105469 34.414062 C 24.070312 35.03125 24.539062 35.5625 25.15625 35.597656 C 25.179688 35.601562 25.203125 35.601562 25.222656 35.601562 C 25.8125 35.601562 26.308594 35.140625 26.339844 34.546875 C 26.398438 33.574219 26.425781 32.683594 26.425781 31.863281 C 26.417969 27.636719 25.742188 25.296875 24.824219 23.890625 C 24.363281 23.191406 23.824219 22.746094 23.328125 22.496094 C 22.847656 22.253906 22.425781 22.199219 22.175781 22.199219 C 22.160156 22.199219 22.144531 22.195312 22.128906 22.195312 L 20.925781 22.195312 C 21.117188 23.28125 21.574219 26.445312 20.601562 27.074219 C 20.4375 27.179688 20.300781 27.265625 20.175781 27.34375 L 19.84375 24.007812 C 19.707031 24.046875 19.5625 24.066406 19.421875 24.066406 C 19.28125 24.066406 19.140625 24.046875 19.003906 24.007812 L 18.667969 27.34375 C 18.542969 27.265625 18.40625 27.179688 18.242188 27.074219 C 17.269531 26.445312 17.730469 23.28125 17.917969 22.195312 L 16.921875 22.195312 C 16.589844 22.082031 15.796875 21.78125 15.09375 21.351562 C 14.679688 21.101562 14.304688 20.804688 14.078125 20.527344 C 13.84375 20.242188 13.765625 20.027344 13.765625 19.828125 C 13.769531 19.628906 13.835938 19.320312 14.269531 18.816406 C 14.699219 18.320312 15.484375 17.6875 16.734375 16.992188 C 17.273438 16.6875 17.464844 16.007812 17.164062 15.464844 C 16.859375 14.925781 16.179688 14.734375 15.636719 15.035156 C 14.246094 15.820312 13.261719 16.566406 12.582031 17.34375 C 11.902344 18.113281 11.523438 18.972656 11.527344 19.828125 C 11.527344 20.746094 11.949219 21.511719 12.449219 22.070312 C 13.214844 22.914062 14.1875 23.449219 14.984375 23.824219 C 15.21875 23.9375 15.441406 24.027344 15.632812 24.105469 L 15.632812 46.578125 C 15.632812 47.535156 16.410156 48.308594 17.367188 48.308594 C 18.105469 48.308594 18.734375 47.84375 18.984375 47.191406 C 19.054688 47 19.097656 46.792969 19.097656 46.578125 Z M 19.097656 33.9375 " fill-opacity="1" fill-rule="nonzero"/></g><path fill="#5e17eb" d="M 20.011719 23.308594 L 19.816406 22.257812 L 19.03125 22.257812 L 18.835938 23.308594 L 18.945312 23.542969 C 19.097656 23.609375 19.257812 23.644531 19.421875 23.644531 C 19.585938 23.644531 19.746094 23.609375 19.898438 23.542969 Z M 20.011719 23.308594 " fill-opacity="1" fill-rule="nonzero"/><g fill="#5e17eb" fill-opacity="1"><g transform="translate(9.512695, 39.389999)"><g><path d="M 0.453125 0 L 0.453125 -0.34375 C 0.453125 -0.382812 0.441406 -0.414062 0.421875 -0.4375 C 0.398438 -0.457031 0.367188 -0.46875 0.328125 -0.46875 C 0.273438 -0.46875 0.234375 -0.453125 0.203125 -0.421875 C 0.179688 -0.398438 0.171875 -0.351562 0.171875 -0.28125 L 0.171875 0 L 0.09375 0 L 0.09375 -0.765625 L 0.171875 -0.765625 L 0.171875 -0.53125 C 0.171875 -0.5 0.164062 -0.476562 0.15625 -0.46875 L 0.171875 -0.46875 C 0.179688 -0.488281 0.203125 -0.503906 0.234375 -0.515625 C 0.265625 -0.535156 0.300781 -0.546875 0.34375 -0.546875 C 0.40625 -0.546875 0.453125 -0.53125 0.484375 -0.5 C 0.515625 -0.46875 0.53125 -0.414062 0.53125 -0.34375 L 0.53125 0 Z M 0.453125 0 "/></g></g></g></svg>